<svg width="24" height="24" viewBox="0 0 24 24" fill="none" xmlns="http://www.w3.org/2000/svg">
<path fill-rule="evenodd" clip-rule="evenodd" d="M6.5 12C7.22227 12 7.93747 11.8577 8.60476 11.5813C9.27205 11.3049 9.87837 10.8998 10.3891 10.3891C10.8998 9.87837 11.3049 9.27205 11.5813 8.60476C11.8577 7.93747 12 7.22227 12 6.5C12 5.77773 11.8577 5.06253 11.5813 4.39524C11.3049 3.72795 10.8998 3.12163 10.3891 2.61091C9.87837 2.10019 9.27205 1.69506 8.60476 1.41866C7.93747 1.14226 7.22227 1 6.5 1C5.04131 1 3.64236 1.57946 2.61091 2.61091C1.57946 3.64236 1 5.04131 1 6.5C1 7.95869 1.57946 9.35764 2.61091 10.3891C3.64236 11.4205 5.04131 12 6.5 12ZM6.5 3.007C6.63261 3.007 6.75979 3.05968 6.85355 3.15345C6.94732 3.24721 7 3.37439 7 3.507V6H9.493C9.62561 6 9.75279 6.05268 9.84655 6.14645C9.94032 6.24021 9.993 6.36739 9.993 6.5C9.993 6.63261 9.94032 6.75979 9.84655 6.85355C9.75279 6.94732 9.62561 7 9.493 7H7V9.493C7 9.62561 6.94732 9.75279 6.85355 9.84655C6.75979 9.94032 6.63261 9.993 6.5 9.993C6.36739 9.993 6.24021 9.94032 6.14645 9.84655C6.05268 9.75279 6 9.62561 6 9.493V7H3.507C3.37439 7 3.24721 6.94732 3.15345 6.85355C3.05968 6.75979 3.007 6.63261 3.007 6.5C3.007 6.36739 3.05968 6.24021 3.15345 6.14645C3.24721 6.05268 3.37439 6 3.507 6H6V3.507C6 3.37439 6.05268 3.24721 6.14645 3.15345C6.24021 3.05968 6.36739 3.007 6.5 3.007Z" fill="#919499"/>
<path d="M20.5 14H18.8C17.12 14 16.28 14 15.638 14.327C15.0735 14.6146 14.6146 15.0735 14.327 15.638C14 16.28 14 17.12 14 18.8V20.5M15.5 8H14M11.5 12H13M13.75 4H14.1C16.34 4 17.46 4 18.316 4.436C19.0686 4.81949 19.6805 5.43139 20.064 6.184C20.5 7.04 20.5 8.16 20.5 10.4V13.849C20.5 14.827 20.5 15.317 20.39 15.777C20.291 16.185 20.13 16.575 19.91 16.933C19.663 17.337 19.317 17.683 18.625 18.375L18.375 18.625C17.683 19.317 17.337 19.663 16.933 19.911C16.5752 20.1303 16.1851 20.292 15.777 20.39C15.317 20.5 14.827 20.5 13.849 20.5H10.4C8.16 20.5 7.04 20.5 6.184 20.064C5.43139 19.6805 4.81949 19.0686 4.436 18.316C4 17.46 4 16.34 4 14.1V13.75" stroke="#919499" stroke-width="1.5" stroke-linecap="round" stroke-linejoin="round"/>
</svg>
