<svg width="22" height="22" viewBox="0 0 22 22" fill="none" xmlns="http://www.w3.org/2000/svg">
<path d="M16.4997 16.9582L16.7545 15.6877C16.8883 15.0158 17.2477 14.3952 17.376 13.7224C17.4035 13.5825 17.417 13.4388 17.4163 13.2916C17.416 12.9726 17.349 12.6573 17.2197 12.3657C17.0905 12.0741 16.9018 11.8127 16.6657 11.5982C16.4296 11.3837 16.1514 11.2209 15.8488 11.1201C15.5462 11.0193 15.2258 10.9828 14.9083 11.0129C14.5908 11.043 14.283 11.1391 14.0048 11.295C13.7265 11.4508 13.4838 11.6631 13.2923 11.9181C13.1007 12.1731 12.9645 12.4654 12.8924 12.776C12.8203 13.0867 12.8138 13.4091 12.8733 13.7224C13.0017 14.3962 13.361 15.0149 13.4958 15.6877L13.7497 16.9582M16.4997 16.9582H13.7497M16.4997 16.9582L18.7886 17.5687C19.1794 17.6557 19.5288 17.8733 19.7793 18.1856C20.0298 18.4979 20.1663 18.8862 20.1663 19.2866C20.1663 19.7724 19.7722 20.1666 19.2863 20.1666H10.963C10.7296 20.1666 10.5058 20.0739 10.3408 19.9088C10.1757 19.7438 10.083 19.52 10.083 19.2866C10.083 18.4616 10.6559 17.7475 11.4608 17.5687L13.7497 16.9582" stroke="#919499" stroke-width="1.375"/>
<path d="M15.583 8.25004V7.33337C15.583 4.74104 15.583 3.44396 14.7773 2.63912C13.9724 1.83337 12.6753 1.83337 10.083 1.83337H7.33301C4.74067 1.83337 3.44359 1.83337 2.63876 2.63912C1.83301 3.44396 1.83301 4.74104 1.83301 7.33337V14.6667C1.83301 17.259 1.83301 18.5561 2.63876 19.361C3.44359 20.1667 4.74067 20.1667 7.33301 20.1667" stroke="#919499" stroke-width="1.375" stroke-linecap="round"/>
<path d="M6.41602 7.94475C6.41602 7.94475 6.98893 7.94475 7.56185 9.16667C7.56185 9.16667 9.38143 6.11142 10.9993 5.5" stroke="#919499" stroke-width="1.375" stroke-linecap="round" stroke-linejoin="round"/>
<path d="M5.5 12.8334H9.16667M5.5 15.5834H9.16667" stroke="#919499" stroke-width="1.375" stroke-linecap="round"/>
</svg>
