<svg width="11" height="11" viewBox="0 0 11 11" fill="none" xmlns="http://www.w3.org/2000/svg">
<path d="M1.67076 1.39074C1.70101 1.1446 1.82772 0.92054 2.02305 0.767764C2.21839 0.614988 2.46638 0.545993 2.71255 0.575935L10.1564 1.48604C10.4026 1.51629 10.6266 1.643 10.7794 1.83834C10.9322 2.03367 11.0012 2.28166 10.9713 2.52783L10.0611 9.97173C10.0234 10.2114 9.89408 10.427 9.70044 10.5731C9.50681 10.7192 9.264 10.7844 9.02321 10.755C8.78242 10.7256 8.56247 10.6038 8.40975 10.4153C8.25702 10.2268 8.18345 9.9864 8.20455 9.74474L8.84055 4.54277L1.52835 10.2618C1.33285 10.4147 1.08462 10.4836 0.838269 10.4535C0.591916 10.4234 0.367618 10.2966 0.214718 10.1011C0.0618174 9.90565 -0.00715947 9.65743 0.0229602 9.41107C0.0530798 9.16472 0.179829 8.94042 0.375325 8.78752L7.68753 3.06853L2.48556 2.43253C2.23943 2.40228 2.01536 2.27557 1.86259 2.08024C1.70981 1.8849 1.64082 1.63691 1.67076 1.39074Z" fill="#D8D8D8"/>
</svg>
