<svg width="16" height="15" viewBox="0 0 16 15" fill="none" xmlns="http://www.w3.org/2000/svg">
<path d="M13.3602 1.55659H11.8743V0.813664C11.8743 0.616628 11.7961 0.427663 11.6567 0.288337C11.5174 0.149012 11.3284 0.0707397 11.1314 0.0707397C10.9344 0.0707397 10.7454 0.149012 10.6061 0.288337C10.4668 0.427663 10.3885 0.616628 10.3885 0.813664V1.55659H5.93094V0.813664C5.93094 0.616628 5.85267 0.427663 5.71334 0.288337C5.57402 0.149012 5.38505 0.0707397 5.18802 0.0707397C4.99098 0.0707397 4.80201 0.149012 4.66269 0.288337C4.52336 0.427663 4.44509 0.616628 4.44509 0.813664V1.55659H2.95924C2.36813 1.55659 1.80124 1.79141 1.38326 2.20938C0.965285 2.62736 0.730469 3.19426 0.730469 3.78536V12.7005C0.730469 13.2916 0.965285 13.8585 1.38326 14.2764C1.80124 14.6944 2.36813 14.9292 2.95924 14.9292H13.3602C13.9513 14.9292 14.5182 14.6944 14.9362 14.2764C15.3541 13.8585 15.589 13.2916 15.589 12.7005V3.78536C15.589 3.19426 15.3541 2.62736 14.9362 2.20938C14.5182 1.79141 13.9513 1.55659 13.3602 1.55659ZM14.1031 12.7005C14.1031 12.8975 14.0248 13.0865 13.8855 13.2258C13.7462 13.3651 13.5572 13.4434 13.3602 13.4434H2.95924C2.76221 13.4434 2.57324 13.3651 2.43392 13.2258C2.29459 13.0865 2.21632 12.8975 2.21632 12.7005V7.49999H14.1031V12.7005ZM14.1031 6.01414H2.21632V3.78536C2.21632 3.58833 2.29459 3.39936 2.43392 3.26004C2.57324 3.12071 2.76221 3.04244 2.95924 3.04244H4.44509V3.78536C4.44509 3.9824 4.52336 4.17136 4.66269 4.31069C4.80201 4.45002 4.99098 4.52829 5.18802 4.52829C5.38505 4.52829 5.57402 4.45002 5.71334 4.31069C5.85267 4.17136 5.93094 3.9824 5.93094 3.78536V3.04244H10.3885V3.78536C10.3885 3.9824 10.4668 4.17136 10.6061 4.31069C10.7454 4.45002 10.9344 4.52829 11.1314 4.52829C11.3284 4.52829 11.5174 4.45002 11.6567 4.31069C11.7961 4.17136 11.8743 3.9824 11.8743 3.78536V3.04244H13.3602C13.5572 3.04244 13.7462 3.12071 13.8855 3.26004C14.0248 3.39936 14.1031 3.58833 14.1031 3.78536V6.01414Z" fill="#919499"/>
</svg>
