<svg width="16" height="18" viewBox="0 0 16 18" fill="none" xmlns="http://www.w3.org/2000/svg">
<path fill-rule="evenodd" clip-rule="evenodd" d="M15.8125 15.0734C15.8125 16.3125 14.8125 17.3125 13.5734 17.3125H2.42656C1.1875 17.3125 0.1875 16.3125 0.1875 15.0734V3.92656C0.1875 2.6875 1.1875 1.6875 2.42656 1.6875H4.875V0.914063C4.87626 0.730232 4.94104 0.552491 5.05837 0.410961C5.17569 0.269432 5.33834 0.172821 5.51875 0.1375L5.65625 0.125C6.0875 0.125 6.4375 0.459375 6.4375 0.914063V1.6875H9.5625V0.914063C9.56376 0.730232 9.62854 0.552491 9.74587 0.410961C9.86319 0.269432 10.0258 0.172821 10.2062 0.1375L10.3438 0.125C10.775 0.125 11.125 0.459375 11.125 0.914063V1.6875H13.5734C14.8125 1.6875 15.8125 2.6875 15.8125 3.92656V15.0734ZM1.75 6.375V14.7031C1.75 15.2812 2.21875 15.75 2.79688 15.75H13.2031C13.7812 15.75 14.25 15.2812 14.25 14.7031V6.375H1.75ZM4.09375 12.625C4.47656 12.625 4.79688 12.9109 4.8625 13.2687L4.875 13.4062C4.875 13.7891 4.58906 14.1094 4.23125 14.175L4.09375 14.1875C3.88718 14.1855 3.68965 14.1025 3.54357 13.9564C3.3975 13.8104 3.31454 13.6128 3.3125 13.4062C3.3125 13.0234 3.59844 12.7031 3.95625 12.6375L4.09375 12.625ZM8 12.625C8.38281 12.625 8.70312 12.9109 8.76875 13.2687L8.78125 13.4062C8.78125 13.7891 8.49531 14.1094 8.1375 14.175L8 14.1875C7.79343 14.1855 7.5959 14.1025 7.44982 13.9564C7.30375 13.8104 7.22079 13.6128 7.21875 13.4062C7.21875 13.0234 7.50469 12.7031 7.8625 12.6375L8 12.625ZM11.9062 12.625C12.2891 12.625 12.6094 12.9109 12.675 13.2687L12.6875 13.4062C12.6875 13.7891 12.4016 14.1094 12.0438 14.175L11.9062 14.1875C11.6997 14.1855 11.5021 14.1025 11.3561 13.9564C11.21 13.8104 11.127 13.6128 11.125 13.4062C11.125 13.0234 11.4109 12.7031 11.7687 12.6375L11.9062 12.625ZM4.09375 10.2812C4.47656 10.2812 4.79688 10.5672 4.8625 10.925L4.875 11.0625C4.875 11.4453 4.58906 11.7656 4.23125 11.8312L4.09375 11.8438C3.88718 11.8417 3.68965 11.7588 3.54357 11.6127C3.3975 11.4666 3.31454 11.2691 3.3125 11.0625C3.3125 10.6797 3.59844 10.3594 3.95625 10.2938L4.09375 10.2812ZM8 10.2812C8.38281 10.2812 8.70312 10.5672 8.76875 10.925L8.78125 11.0625C8.78125 11.4453 8.49531 11.7656 8.1375 11.8312L8 11.8438C7.79343 11.8417 7.5959 11.7588 7.44982 11.6127C7.30375 11.4666 7.22079 11.2691 7.21875 11.0625C7.21875 10.6797 7.50469 10.3594 7.8625 10.2938L8 10.2812ZM11.9062 10.2812C12.2891 10.2812 12.6094 10.5672 12.675 10.925L12.6875 11.0625C12.6875 11.4453 12.4016 11.7656 12.0438 11.8312L11.9062 11.8438C11.6997 11.8417 11.5021 11.7588 11.3561 11.6127C11.21 11.4666 11.127 11.2691 11.125 11.0625C11.125 10.6797 11.4109 10.3594 11.7687 10.2938L11.9062 10.2812ZM4.09375 7.9375C4.47656 7.9375 4.79688 8.22344 4.8625 8.58125L4.875 8.71875C4.875 9.10156 4.58906 9.42188 4.23125 9.4875L4.09375 9.5C3.88718 9.49796 3.68965 9.415 3.54357 9.26893C3.3975 9.12285 3.31454 8.92532 3.3125 8.71875C3.3125 8.33594 3.59844 8.01562 3.95625 7.95L4.09375 7.9375ZM8 7.9375C8.38281 7.9375 8.70312 8.22344 8.76875 8.58125L8.78125 8.71875C8.78125 9.10156 8.49531 9.42188 8.1375 9.4875L8 9.5C7.79343 9.49796 7.5959 9.415 7.44982 9.26893C7.30375 9.12285 7.22079 8.92532 7.21875 8.71875C7.21875 8.33594 7.50469 8.01562 7.8625 7.95L8 7.9375ZM11.9062 7.9375C12.2891 7.9375 12.6094 8.22344 12.675 8.58125L12.6875 8.71875C12.6875 9.10156 12.4016 9.42188 12.0438 9.4875L11.9062 9.5C11.6997 9.49796 11.5021 9.415 11.3561 9.26893C11.21 9.12285 11.127 8.92532 11.125 8.71875C11.125 8.33594 11.4109 8.01562 11.7687 7.95L11.9062 7.9375ZM1.75 4.8125H14.25V4.29688C14.25 3.71875 13.7812 3.25 13.2031 3.25H2.79688C2.21875 3.25 1.75 3.71875 1.75 4.29688V4.8125Z" fill="#919499"/>
</svg>
