<svg width="32" height="31" viewBox="0 0 32 31" fill="none" xmlns="http://www.w3.org/2000/svg">
<g clip-path="url(#clip0_1207_3718)">
<path d="M0.549805 15.5051C0.549805 19.5132 2.14201 23.3571 4.97615 26.1912C7.8103 29.0254 11.6542 30.6176 15.6623 30.6176C19.6704 30.6176 23.5143 29.0254 26.3485 26.1912C29.1826 23.3571 30.7748 19.5132 30.7748 15.5051C30.7748 11.497 29.1826 7.65307 26.3485 4.81893C23.5143 1.98478 19.6704 0.392578 15.6623 0.392578C11.6542 0.392578 7.8103 1.98478 4.97615 4.81893C2.14201 7.65307 0.549805 11.497 0.549805 15.5051Z" fill="#FF0004" stroke="#231F20" stroke-width="0.783145" stroke-miterlimit="10"/>
<path d="M23.4743 19.6983C23.3503 19.1016 21.6841 17.2571 20.0023 15.5056C21.6841 13.7541 23.3503 11.9096 23.4743 11.3128C23.8308 10.6231 22.9861 9.67759 22.2421 8.92584C21.4981 8.17409 20.5448 7.37584 19.8551 7.69359C19.2583 7.81759 17.4138 9.48384 15.6623 11.1656C13.9108 9.48384 12.0663 7.81759 11.4696 7.69359C10.7798 7.33709 9.83433 8.18184 9.09033 8.92584C8.34633 9.66984 7.49383 10.6231 7.85033 11.3128C7.97433 11.9096 9.64058 13.7541 11.3223 15.5056C9.64058 17.2571 7.97433 19.1016 7.85033 19.6983C7.49383 20.3881 8.33858 21.3336 9.08258 22.0853C9.82658 22.8371 10.7798 23.6741 11.4696 23.3176C12.0663 23.1936 13.9108 21.5273 15.6623 19.8456C17.4138 21.5273 19.2583 23.1936 19.8551 23.3176C20.5448 23.6741 21.4903 22.8293 22.2421 22.0853C22.9938 21.3413 23.8308 20.3881 23.4743 19.6983Z" fill="white" stroke="#231F20" stroke-width="0.783145" stroke-miterlimit="10"/>
<path d="M21.5215 3.88086C23.0691 4.54597 24.4584 5.53115 25.598 6.77161" stroke="white" stroke-width="0.783145" stroke-miterlimit="10" stroke-linecap="round"/>
</g>
<defs>
<clipPath id="clip0_1207_3718">
<rect width="31" height="31" fill="white" transform="translate(0.163086 0.00537109)"/>
</clipPath>
</defs>
</svg>
