<svg width="25" height="25" viewBox="0 0 25 25" fill="none" xmlns="http://www.w3.org/2000/svg">
<path opacity="0.3" fill-rule="evenodd" clip-rule="evenodd" d="M15.0493 1.15223C15.2962 1.27582 15.4839 1.49237 15.5712 1.7543C15.6585 2.01623 15.6383 2.3021 15.5149 2.54911L14.7066 4.16681H18.7503C19.3029 4.16681 19.8328 4.38631 20.2235 4.77701C20.6142 5.16771 20.8337 5.69761 20.8337 6.25015V20.8335C20.8337 21.386 20.6142 21.9159 20.2235 22.3066C19.8328 22.6973 19.3029 22.9168 18.7503 22.9168H6.25033C5.69779 22.9168 5.16789 22.6973 4.77719 22.3066C4.38649 21.9159 4.16699 21.386 4.16699 20.8335V6.25015C4.16699 5.69761 4.38649 5.16771 4.77719 4.77701C5.16789 4.38631 5.69779 4.16681 6.25033 4.16681H10.2941L9.48574 2.54911C9.37222 2.30336 9.35883 2.02309 9.44838 1.76764C9.53794 1.51219 9.72342 1.30164 9.96554 1.18058C10.2077 1.05952 10.4874 1.03747 10.7455 1.11909C11.0036 1.20071 11.2198 1.3796 11.3482 1.61786L12.5003 3.91994L13.6524 1.61786C13.776 1.37097 13.9925 1.18325 14.2545 1.09594C14.5164 1.00863 14.8023 1.02888 15.0493 1.15223Z" fill="#919499"/>
<path fill-rule="evenodd" clip-rule="evenodd" d="M12.4997 9.375C10.8955 9.375 9.89342 11.1115 10.6955 12.5C11.0674 13.1448 11.7549 13.5417 12.4997 13.5417C14.1038 13.5417 15.1059 11.8052 14.3038 10.4167C14.121 10.1 13.858 9.83698 13.5413 9.65413C13.2246 9.47128 12.8654 9.37501 12.4997 9.375ZM14.0622 14.5833H10.9372C10.276 14.5832 9.63956 14.8346 9.15692 15.2865C8.67428 15.7384 8.38159 16.3569 8.33822 17.0167L8.33301 17.1875V17.7083C8.3333 17.9738 8.43496 18.2292 8.61722 18.4223C8.79948 18.6153 9.04858 18.7315 9.31363 18.7471C9.57867 18.7626 9.83965 18.6764 10.0432 18.506C10.2468 18.3356 10.3777 18.0939 10.409 17.8302L10.4163 17.7083V17.1875C10.4163 17.0656 10.459 16.9475 10.5371 16.8539C10.6151 16.7603 10.7235 16.6969 10.8434 16.675L10.9372 16.6667H14.0622C14.1841 16.6666 14.3021 16.7093 14.3958 16.7874C14.4894 16.8654 14.5527 16.9738 14.5747 17.0938L14.583 17.1875V17.7083C14.5833 17.9738 14.685 18.2292 14.8672 18.4223C15.0495 18.6153 15.2986 18.7315 15.5636 18.7471C15.8287 18.7626 16.0897 18.6764 16.2932 18.506C16.4968 18.3356 16.6277 18.0939 16.659 17.8302L16.6663 17.7083V17.1875C16.6664 16.5263 16.4151 15.8899 15.9632 15.4072C15.5113 14.9246 14.8927 14.6319 14.233 14.5885L14.0622 14.5833Z" fill="#919499"/>
</svg>
