<svg width="36" height="36" viewBox="0 0 36 36" fill="none" xmlns="http://www.w3.org/2000/svg">
<g clip-path="url(#clip0_1213_3854)">
<path d="M35.9938 9.18787C35.9938 8.08087 35.9004 6.97837 35.6361 5.90062C35.1613 3.9375 34.042 2.43788 32.3668 1.3365C31.5051 0.774 30.5567 0.428625 29.5487 0.246375C28.7746 0.11116 27.9911 0.0366826 27.2053 0.023625C27.1468 0.018 27.0827 0.005625 27.0175 0H8.98257C8.75382 0.01725 8.52545 0.03075 8.29745 0.0405C7.17807 0.104625 6.06545 0.221625 5.0102 0.6435C3.00657 1.43438 1.5587 2.817 0.714949 4.80938C0.422449 5.48325 0.275074 6.19763 0.170449 6.92438C0.0826992 7.5105 0.0354492 8.10225 0.0185742 8.694C0.0185742 8.74125 0.00732422 8.78738 0.00732422 8.83463V27.1687L0.0421992 27.8021C0.118699 29.0272 0.276199 30.24 0.792574 31.365C1.7657 33.4924 3.40032 34.8919 5.6447 35.5658C6.27132 35.7593 6.92832 35.847 7.5842 35.9055C8.4167 35.9876 9.24807 35.9989 10.0806 35.9989H26.6271C27.4123 35.9974 28.1976 35.9468 28.9828 35.847C30.2192 35.6884 31.3791 35.325 32.4287 34.6343C33.6711 33.8294 34.6508 32.6784 35.2468 31.3234C35.5281 30.69 35.6867 30.0173 35.8037 29.3366C35.9736 28.323 36.0084 27.297 36.0084 26.2721C36.0028 20.5763 36.0084 14.8815 36.0028 9.18563L35.9938 9.18787ZM26.3604 15.1695V23.7364C26.3604 24.363 26.2727 24.9784 25.9914 25.5465C25.5583 26.4307 24.8552 26.9876 23.9113 27.2576C23.3885 27.4079 22.8495 27.4944 22.3059 27.5153C21.6225 27.5556 20.948 27.3433 20.4109 26.9187C19.8739 26.494 19.5117 25.8867 19.3933 25.2124C19.2845 24.6056 19.3781 23.9799 19.6596 23.4315C19.9411 22.8831 20.395 22.4424 20.9515 22.1771C21.4318 21.9431 21.9538 21.8025 22.4747 21.6967C23.0428 21.5741 23.611 21.4627 24.1735 21.3334C24.5897 21.24 24.8586 20.988 24.9407 20.5594C24.9643 20.466 24.9699 20.3659 24.9699 20.2725V12.105C24.9679 12.0118 24.9543 11.9192 24.9294 11.8294C24.8709 11.601 24.7067 11.466 24.4727 11.4772C24.2319 11.4885 23.9979 11.5301 23.764 11.5774C22.6202 11.8001 21.4795 12.0285 20.3417 12.2625L14.7932 13.3819C14.7696 13.3875 14.7403 13.3999 14.7167 13.3999C14.3004 13.5169 14.1542 13.7048 14.1362 14.1379C14.1306 14.202 14.1362 14.2673 14.1362 14.3314C14.1306 18.234 14.1362 22.1366 14.1306 26.0381C14.1306 26.6715 14.0597 27.2925 13.8088 27.8775C13.3926 28.8383 12.6546 29.4424 11.6589 29.7292C11.1327 29.8827 10.5891 29.9693 10.0412 29.9869C8.6057 30.0398 7.40982 29.0846 7.16457 27.6727C6.95307 26.4544 7.50995 25.1415 8.89257 24.5554C9.43145 24.3326 9.98832 24.21 10.5564 24.093L11.8457 23.8298C12.4194 23.7071 12.7187 23.3438 12.7479 22.7576V9.21037C12.7494 9.02213 12.7708 8.8365 12.8121 8.6535C12.9178 8.226 13.2227 7.97963 13.6322 7.8795C14.0136 7.77938 14.4062 7.70963 14.7921 7.6275C15.8934 7.40475 16.9892 7.182 18.0906 6.96488L21.4948 6.273C22.5028 6.07388 23.5041 5.86912 24.5121 5.67C24.8406 5.60588 25.1747 5.535 25.5077 5.51138C25.9701 5.47088 26.2929 5.76337 26.3402 6.2325C26.3514 6.34425 26.3575 6.45563 26.3582 6.56662V15.1627L26.3604 15.1695Z" fill="#F74FB3"/>
</g>
<defs>
<clipPath id="clip0_1213_3854">
<rect width="36" height="36" fill="white"/>
</clipPath>
</defs>
</svg>
