<svg width="43" height="42" viewBox="0 0 43 42" fill="none" xmlns="http://www.w3.org/2000/svg">
<path d="M33.6043 26.1353V15.6812C33.6043 10.7538 33.6043 8.28836 32.0728 6.75858C30.543 5.22705 28.0776 5.22705 23.1502 5.22705H19.6655C14.7382 5.22705 12.2727 5.22705 10.743 6.75858C9.21143 8.28836 9.21143 10.7538 9.21143 15.6812V26.1353C9.21143 31.0626 9.21143 33.528 10.743 35.0578C12.2727 36.5894 14.7382 36.5894 19.6655 36.5894H23.1502C28.0776 36.5894 30.543 36.5894 32.0728 35.0578C33.6043 33.528 33.6043 31.0626 33.6043 26.1353Z" stroke="#FFF200" stroke-width="2.61353"/>
<path d="M38.8314 12.1963V29.6198M3.98438 12.1963V29.6198" stroke="#FFF200" stroke-width="2.61353" stroke-linecap="round"/>
<path d="M24.8928 14.8253C24.8928 15.7495 24.5257 16.6358 23.8722 17.2893C23.2187 17.9428 22.3323 18.31 21.4081 18.31C20.4839 18.31 19.5976 17.9428 18.9441 17.2893C18.2905 16.6358 17.9234 15.7495 17.9234 14.8253C17.9234 13.9011 18.2905 13.0147 18.9441 12.3612C19.5976 11.7077 20.4839 11.3406 21.4081 11.3406C22.3323 11.3406 23.2187 11.7077 23.8722 12.3612C24.5257 13.0147 24.8928 13.9011 24.8928 14.8253ZM14.5154 27.4103C16.3605 24.5702 19.2894 23.5074 21.4064 23.5109C23.5268 23.5109 26.3686 24.572 28.212 27.4103C28.3322 27.595 28.3653 27.8197 28.2573 28.0114C27.8252 28.7763 26.4871 30.2939 25.5201 30.3967C24.4084 30.5134 21.5022 30.5308 21.4081 30.5308C21.3175 30.5308 18.3207 30.5134 17.209 30.3967C16.242 30.2921 14.9022 28.7763 14.4718 28.0096C14.3638 27.8197 14.3969 27.595 14.5154 27.4103Z" stroke="#FFF200" stroke-width="2.61353" stroke-linecap="round" stroke-linejoin="round"/>
</svg>
