<svg width="36" height="35" viewBox="0 0 36 35" fill="none" xmlns="http://www.w3.org/2000/svg">
<g clip-path="url(#clip0_1213_3865)">
<path d="M34.9911 31.4342L32.9562 24.3192C32.8294 23.8731 32.5609 23.4805 32.1912 23.2007C31.8215 22.9208 31.3707 22.769 30.907 22.7681H5.09356C4.62988 22.769 4.1791 22.9208 3.80939 23.2007C3.43968 23.4805 3.17116 23.8731 3.04442 24.3192L1.00951 31.4342C0.919368 31.7514 0.903955 32.0852 0.964479 32.4094C1.025 32.7336 1.15982 33.0393 1.35834 33.3027C1.55687 33.566 1.81371 33.7797 2.10872 33.9271C2.40373 34.0745 2.72887 34.1516 3.05865 34.1522H32.9419C33.2717 34.1516 33.5969 34.0745 33.8919 33.9271C34.1869 33.7797 34.4437 33.566 34.6423 33.3027C34.8408 33.0393 34.9756 32.7336 35.0361 32.4094C35.0966 32.0852 35.0812 31.7514 34.9911 31.4342ZM10.8852 31.3062C8.49456 31.3062 6.61618 30.0539 6.61618 28.4601C6.61618 26.8663 8.49456 25.6141 10.8852 25.6141C13.2759 25.6141 15.1543 26.8663 15.1543 28.4601C15.1543 30.0539 13.2901 31.3062 10.8852 31.3062ZM25.1154 31.3062C22.7247 31.3062 20.8463 30.0539 20.8463 28.4601C20.8463 26.8663 22.7247 25.6141 25.1154 25.6141C27.506 25.6141 29.3844 26.8663 29.3844 28.4601C29.3844 30.0539 27.506 31.3062 25.1154 31.3062ZM13.7313 9.96094C13.7313 11.0932 14.181 12.179 14.9816 12.9796C15.7822 13.7802 16.8681 14.23 18.0003 14.23C19.1325 14.23 20.2184 13.7802 21.019 12.9796C21.8196 12.179 22.2693 11.0932 22.2693 9.96094C22.2693 8.82872 21.8196 7.74287 21.019 6.94227C20.2184 6.14167 19.1325 5.69189 18.0003 5.69189C16.8681 5.69189 15.7822 6.14167 14.9816 6.94227C14.181 7.74287 13.7313 8.82872 13.7313 9.96094Z" fill="#7BFF00"/>
<path d="M24.6746 20.6333C24.796 20.6309 24.9149 20.5981 25.0203 20.5378C25.1257 20.4776 25.2144 20.3919 25.2781 20.2885C25.3418 20.1851 25.3786 20.0674 25.385 19.9462C25.3914 19.8249 25.3674 19.704 25.315 19.5945C24.6663 18.2015 23.6333 17.0228 22.3376 16.1968C21.0419 15.3709 19.5373 14.9321 18.0007 14.9321C16.4641 14.9321 14.9594 15.3709 13.6637 16.1968C12.368 17.0228 11.335 18.2015 10.6864 19.5945C10.634 19.704 10.6099 19.8249 10.6163 19.9462C10.6228 20.0674 10.6595 20.1851 10.7233 20.2885C10.787 20.3919 10.8756 20.4776 10.981 20.5378C11.0865 20.5981 11.2053 20.6309 11.3267 20.6333H24.6746ZM26.7949 6.17545C26.6874 6.14875 26.5882 6.09576 26.5062 6.02124C26.4243 5.94673 26.3621 5.85303 26.3253 5.74855C25.6917 4.05773 24.5585 2.59982 23.0762 1.56863C21.594 0.537434 19.8331 -0.0181836 18.0274 -0.024362C16.2218 -0.0305403 14.4571 0.513013 12.9678 1.53404C11.4786 2.55506 10.3354 4.00519 9.69026 5.69163C9.64795 5.79679 9.58248 5.89106 9.49872 5.96743C9.41495 6.04381 9.31505 6.10032 9.20644 6.13276C8.37937 6.36073 7.66254 6.87991 7.188 7.59463C6.71347 8.30936 6.5132 9.1715 6.62409 10.0222C6.73498 10.8729 7.14955 11.6549 7.79144 12.2241C8.43333 12.7933 9.25929 13.1114 10.1172 13.1198H11.5402C11.7289 13.1198 11.9099 13.0448 12.0433 12.9114C12.1767 12.7779 12.2517 12.597 12.2517 12.4083V7.11464C12.2556 6.92426 12.2941 6.73619 12.3655 6.55966C12.8261 5.46017 13.6013 4.5213 14.5937 3.861C15.5862 3.20069 16.7517 2.84842 17.9437 2.84842C19.1358 2.84842 20.3013 3.20069 21.2937 3.861C22.2862 4.5213 23.0614 5.46017 23.522 6.55966C23.613 6.73239 23.6709 6.92062 23.6927 7.11464V12.4509C23.6927 12.6396 23.7677 12.8206 23.9011 12.9541C24.0346 13.0875 24.2155 13.1625 24.4042 13.1625H25.8272C26.69 13.1678 27.5252 12.8594 28.1775 12.2947C28.8299 11.7301 29.2547 10.9476 29.3731 10.093C29.4914 9.23842 29.2952 8.36994 28.8209 7.64926C28.3466 6.92857 27.6266 6.4048 26.7949 6.17545Z" fill="#7BFF00"/>
</g>
<defs>
<clipPath id="clip0_1213_3865">
<rect width="34.1523" height="34.1523" fill="white" transform="translate(0.923828)"/>
</clipPath>
</defs>
</svg>
