<svg width="21" height="19" viewBox="0 0 21 19" fill="none" xmlns="http://www.w3.org/2000/svg">
<path d="M1.99523 0.916199C1.8003 0.916199 1.61335 0.993636 1.47551 1.13148C1.33767 1.26931 1.26023 1.45626 1.26023 1.6512V6.1137H0.735233C0.630301 6.11367 0.526578 6.1361 0.43104 6.17949C0.335502 6.22289 0.250362 6.28624 0.181347 6.36528C0.112332 6.44432 0.0610416 6.53723 0.0309245 6.63774C0.000807445 6.73826 -0.00743794 6.84406 0.00674286 6.94803L1.26674 17.4476V17.448L1.2722 17.4799V17.4808L1.2785 17.5123V17.5127L1.2869 17.5442V17.5453C1.28984 17.5558 1.29299 17.5661 1.29635 17.5763V17.5768C1.29971 17.5871 1.30342 17.5974 1.30748 17.6076V17.608L1.31966 17.6379V17.6383C1.32386 17.6484 1.32841 17.6584 1.33331 17.6683V17.6687C1.33807 17.6784 1.34311 17.6879 1.34843 17.6973V17.6977C1.35577 17.7111 1.36348 17.7243 1.37153 17.7372C1.38087 17.7522 1.39067 17.7669 1.40093 17.7813L1.40135 17.7819C1.40765 17.7907 1.41423 17.7994 1.42109 17.8078V17.8082C1.43494 17.8251 1.44944 17.8415 1.46456 17.8573L1.46498 17.8577C1.4724 17.8656 1.48003 17.8733 1.48787 17.8808L1.48829 17.8813C1.52807 17.9191 1.57195 17.9523 1.61912 17.9804H1.61954L1.62983 17.9863C1.64538 17.9952 1.66121 18.0036 1.67729 18.0115H1.67771C1.72732 18.0353 1.77945 18.0535 1.83311 18.0656H1.83353C1.84417 18.0682 1.85488 18.0704 1.86566 18.0724H1.86608C1.89854 18.0778 1.93129 18.0813 1.96415 18.0829C1.97451 18.0834 1.98501 18.0837 1.99523 18.0837H19.0052C19.1158 18.0838 19.225 18.0589 19.3246 18.0109C19.4242 17.9629 19.5118 17.893 19.5806 17.8065V17.8061C19.6217 17.7544 19.6556 17.6974 19.6814 17.6366V17.6362L19.694 17.6059V17.6055C19.713 17.5547 19.7264 17.5018 19.7337 17.448L20.9937 6.94803C21.0079 6.84406 20.9997 6.73826 20.9695 6.63774C20.9394 6.53723 20.8881 6.44432 20.8191 6.36528C20.7501 6.28624 20.665 6.22289 20.5694 6.17949C20.4739 6.1361 20.3702 6.11367 20.2652 6.1137H19.7402V3.4887C19.7402 3.29376 19.6628 3.10681 19.525 2.96898C19.3871 2.83114 19.2002 2.7537 19.0052 2.7537H8.55773V1.6512C8.55773 1.45626 8.4803 1.26931 8.34246 1.13148C8.20462 0.993636 8.01767 0.916199 7.82273 0.916199H1.99523ZM2.73023 4.6437H18.2702V6.1137H2.73023V4.6437ZM6.79331 7.5837H8.80133C8.93867 7.6362 9.07118 7.71117 9.13607 7.80357C9.06194 7.83507 9.25577 7.83465 9.18017 7.91151C9.09743 7.98837 9.08651 8.06691 9.11717 8.15301C9.06614 8.21349 9.04787 8.23134 9.13901 8.27607C9.14321 8.35398 8.89982 8.2641 9.06719 8.34978C9.12683 8.51064 8.82653 8.34075 8.84879 8.44995C8.97059 8.37015 9.05879 8.56818 8.95883 8.53689C8.90486 8.48523 8.80343 8.44974 8.91137 8.53941C9.00503 8.57931 9.05207 8.72694 9.00839 8.76873C8.92271 8.74899 8.81666 8.7744 8.98025 8.78994C8.96135 8.90649 8.73161 8.976 8.58692 9.01506C8.43992 9.08331 8.39225 9.24606 8.19107 9.26202C8.13164 9.33594 8.14886 9.45627 8.0741 9.50037C8.11568 9.61734 7.97099 9.77001 7.8662 9.627C7.67027 9.606 7.65284 9.40062 7.58039 9.28386C7.55772 9.25538 7.54127 9.22247 7.53211 9.18724C7.52294 9.15202 7.52127 9.11526 7.52718 9.07935C7.5331 9.04343 7.54648 9.00916 7.56646 8.97873C7.58644 8.94831 7.61258 8.92241 7.64318 8.90271C7.69631 8.81031 7.56002 8.78154 7.55498 8.87121C7.34078 8.92161 7.44179 8.65365 7.61021 8.72757C7.66082 8.74311 7.53188 8.59065 7.47497 8.66772C7.36997 8.61144 7.54364 8.4783 7.42373 8.39682C7.36766 8.27502 7.3517 8.1108 7.18286 8.05578C7.09718 7.98648 7.02746 8.08455 6.93359 8.08035C6.7889 8.06733 6.82481 7.94259 6.71414 7.90395C6.79268 7.83087 6.83468 7.80945 6.70217 7.76577C6.58352 7.6887 6.69524 7.62465 6.79331 7.5837ZM6.33593 7.64775C6.48671 7.65216 6.52388 7.74771 6.40901 7.78845C6.36617 7.8651 6.33362 7.89135 6.39494 7.9554C6.3479 8.01945 6.23324 8.06628 6.19607 7.99992C6.08351 8.03793 5.90669 7.97199 5.8376 8.05578C5.9573 8.17863 6.3059 7.95603 6.29456 8.16771C6.29981 8.35545 5.9468 8.24121 5.78846 8.26095C5.61059 8.22441 5.77901 7.98585 5.5541 8.00202C5.37287 7.85922 5.63222 7.863 5.7263 7.93314C5.82206 7.96737 5.84369 7.96044 5.8964 7.88148C5.97179 7.85334 5.80883 7.73301 5.9636 7.69941C6.08057 7.66224 6.21476 7.67379 6.33593 7.64775ZM4.85207 7.68429C4.98731 7.71369 4.83863 7.93692 4.72649 7.79034C4.59902 7.75947 4.67882 7.6782 4.77563 7.68492C4.80086 7.68003 4.82677 7.67982 4.85207 7.68429ZM5.31953 7.69395C5.56502 7.69101 5.25905 7.85628 5.22482 7.72356C5.23868 7.69626 5.28887 7.69668 5.31953 7.69395ZM5.52134 7.695C5.62214 7.6929 5.59148 7.77753 5.68514 7.78614C5.67527 7.92096 5.31911 7.68954 5.52134 7.695ZM10.7886 7.7076C10.9154 7.716 10.7749 7.85418 10.7579 7.94364C10.697 8.02428 10.6298 7.8651 10.6048 7.82961C10.6584 7.78677 10.4958 7.68996 10.6697 7.71306H10.7167C10.7468 7.70844 10.7708 7.70648 10.7886 7.7076ZM10.9944 7.71327C11.1183 7.7181 11.1817 7.80126 11.054 7.84557C10.9923 7.90038 10.8411 7.72587 10.9944 7.71327ZM14.6221 7.71327C14.4644 7.75107 14.7542 7.75422 14.6221 7.71327V7.71327ZM5.07488 7.75464C5.19563 7.7496 5.15783 7.95708 5.09252 7.82037C5.08475 7.79895 5.07362 7.77732 5.07488 7.75464ZM14.792 7.77228C14.9382 7.78572 14.9033 7.9596 15.095 7.93125C15.3401 7.98354 15.2857 8.23449 15.0856 8.30421C15.107 8.36721 15.2215 8.32227 15.2353 8.35125C15.3008 8.4006 15.4877 8.34075 15.531 8.44113C15.7078 8.52513 15.6436 8.26725 15.8086 8.37351C16.0749 8.36469 15.9134 8.60724 16.0453 8.69124C16.0953 8.6631 16.1053 8.51169 16.186 8.62614C16.2687 8.64378 16.5027 8.63769 16.4124 8.54655C16.4707 8.41698 16.7437 8.51442 16.8771 8.54655C16.9687 8.6295 17.052 8.72463 17.2295 8.68725C17.4307 8.63013 17.3504 8.90985 17.5346 8.81955C17.6377 8.86512 17.7026 8.81745 17.7837 8.78973C17.8399 8.81913 17.7333 8.93505 17.8719 8.89767C17.7677 8.72064 18.1155 8.81367 18.2209 8.84853C18.3866 8.9277 18.5056 9.0621 18.6955 9.10893C18.7184 9.21813 18.6904 9.45669 18.5014 9.29709C18.4185 9.15597 18.1675 9.34623 18.2893 9.45249C18.2654 9.5493 18.0321 9.49197 17.968 9.60369C17.905 9.69315 17.8286 9.66333 17.7381 9.65682C17.6969 9.7047 17.6633 9.70407 17.631 9.68685C17.5491 9.72927 17.5468 9.71079 17.6098 9.7467C17.5669 9.83742 17.4682 9.73662 17.5338 9.84435C17.5583 9.96678 17.4351 10.0483 17.3821 10.1488C17.3055 10.1686 17.2183 10.3706 17.1606 10.2954C17.2897 10.1799 17.0751 9.98925 17.227 9.8706C17.2963 9.7593 17.4718 9.6816 17.5256 9.57555C17.4235 9.63813 17.3576 9.67593 17.3565 9.55749C17.2272 9.55392 17.1381 9.68139 17.157 9.75069C16.9905 9.80025 16.9241 9.69546 16.7517 9.74229C16.5319 9.70743 16.4609 9.90882 16.3145 9.99114C16.204 10.0562 16.4075 10.0798 16.4605 10.0613C16.5356 10.1354 16.5571 10.0791 16.5925 10.056C16.645 10.1551 16.6593 10.3038 16.6723 10.3969C16.5394 10.315 16.6879 10.535 16.5781 10.5449C16.6184 10.6274 16.8647 10.6365 16.6709 10.7114C16.6144 10.7665 16.4823 10.7007 16.556 10.8087C16.5892 10.9739 16.4672 11.1119 16.2505 11.1329C16.1234 11.1235 16.03 11.3366 15.9911 11.1741C15.9577 11.0409 16.2662 11.0497 16.3345 10.9464C16.5323 10.9145 16.3933 10.693 16.5272 10.6039C16.5306 10.505 16.5854 10.2805 16.5161 10.252C16.5132 10.4206 16.3725 10.5655 16.2284 10.6835C16.1291 10.7196 16.0113 10.7028 15.9789 10.8116C15.826 10.8586 16.0157 10.9256 15.9871 11.0096C15.9989 11.0733 15.7771 11.1566 15.8227 11.046C15.8622 10.9399 15.7124 10.9582 15.7633 10.8622C15.6562 10.879 15.5316 10.9363 15.615 10.8131C15.5673 10.8292 15.3798 10.9332 15.5425 10.9447C15.6832 10.9086 15.7097 10.993 15.5696 11.0266C15.5339 11.1344 15.7194 11.2541 15.6045 11.3631C15.5192 11.5176 15.3288 11.5993 15.1278 11.6403C15.128 11.7001 14.9934 11.8393 14.9827 11.7117C15.0814 11.6608 15.0472 11.602 14.9445 11.6613C14.8306 11.7688 15.2406 11.9437 14.9753 12.0451C14.9039 12.1054 14.8359 12.1319 14.7964 12.0472C14.7164 12.0258 14.633 11.8767 14.6419 12.0254C14.6055 12.1497 14.9136 12.2486 14.7924 12.3606C14.6171 12.3018 14.5453 12.1189 14.5396 11.9813C14.515 11.8946 14.4545 11.7761 14.33 11.8469C14.2834 11.7444 14.2372 11.5212 14.0381 11.6251C13.9234 11.6984 13.8023 11.7826 13.6845 11.861C13.5868 11.9786 13.888 12.1634 13.6561 12.2085C13.6019 12.1375 13.716 11.9775 13.5673 12.1149C13.4182 12.089 13.3928 11.8702 13.3237 11.7619C13.3315 11.6562 13.2605 11.6478 13.1546 11.6182C13.0866 11.4403 12.8275 11.4895 12.6435 11.4628C12.4614 11.434 12.8947 11.5905 12.6739 11.6659C12.5832 11.7896 12.3938 11.8326 12.2432 11.8996C12.1502 11.9128 11.8715 12.0109 12.1059 12.0115C12.2008 11.9905 12.4068 11.9273 12.3241 12.0689C12.26 12.2232 12.109 12.3429 11.9471 12.4393C11.8159 12.5277 11.7661 12.6688 11.84 12.7934C11.8995 12.9362 11.8262 13.0618 11.6468 13.1166C11.5635 13.2033 11.667 13.3415 11.5091 13.4076C11.4423 13.5378 11.3425 13.7002 11.1489 13.7338C10.9891 13.777 10.7474 13.7934 10.7728 13.6115C10.6729 13.4862 10.626 13.3478 10.5817 13.206C10.4332 13.0851 10.5179 12.9337 10.5834 12.8049C10.5861 12.6615 10.4202 12.5515 10.3696 12.4397C10.3847 12.3845 10.4484 12.2675 10.3291 12.2659C10.2052 12.2862 10.139 12.1294 9.99938 12.2228C9.8318 12.2556 9.62138 12.2986 9.47711 12.201C9.35447 12.1086 9.1577 11.983 9.16778 11.8519C9.26753 11.7201 9.12095 11.5447 9.31226 11.4298C9.4727 11.3349 9.51134 11.1928 9.64322 11.0842C9.8066 10.9548 9.47543 11.0115 9.54851 10.8759C9.51029 10.7419 9.55859 10.5861 9.77846 10.644C9.84797 10.6476 9.941 10.6705 9.90866 10.5903C9.98111 10.4739 9.64175 10.4349 9.80072 10.3733C9.93701 10.4158 9.82886 10.279 9.97628 10.3164C10.1353 10.2381 9.79862 10.2982 9.74402 10.311C9.66569 10.3309 9.78182 10.2257 9.73709 10.1896C9.77909 10.1493 9.75788 10.1304 9.81626 10.0743C9.67766 9.97686 9.75284 10.2555 9.58169 10.2228C9.43763 10.2648 9.50021 10.0844 9.53822 10.0428C9.5819 10.0449 9.62033 9.96804 9.6995 9.97014C9.66695 9.89937 9.73415 9.68181 9.84041 9.78975C9.83936 9.83952 9.96851 9.8328 9.87737 9.90735C9.89837 10.0319 10.1075 10.111 10.058 10.2421C10.1783 10.2043 10.2302 10.0867 10.3623 10.0588C10.3091 9.98631 10.3203 9.81033 10.4668 9.83973C10.4979 9.9315 10.345 10.0728 10.5784 10.0424C10.6605 10.1012 10.7905 9.9588 10.8551 10.0342C10.9891 9.93402 10.898 9.72129 11.1338 9.69294C11.2147 9.71499 11.3829 9.63372 11.21 9.64884C10.9769 9.77442 10.835 9.51486 10.9937 9.39432C11.0958 9.35652 11.1766 9.16122 11.0057 9.23808C11.0007 9.37941 10.744 9.44241 10.7858 9.59256C10.9257 9.72066 10.7071 9.81516 10.6966 9.95019C10.6292 9.97497 10.4299 10.0737 10.4979 9.94557C10.5439 9.90609 10.4782 9.75321 10.437 9.75006C10.3438 9.85275 10.1798 9.81936 10.2048 9.68076C10.1359 9.52116 10.2726 9.45627 10.4078 9.35589C10.5359 9.24879 10.587 9.102 10.6876 8.98545C10.7755 8.85525 10.9246 8.7597 11.0931 8.72505C11.1645 8.61438 11.4977 8.72148 11.3818 8.81598C11.5063 8.78238 11.5521 8.89494 11.6775 8.91279C11.8468 8.9529 12.003 9.18579 11.7308 9.18978C11.6483 9.19251 11.4709 9.08163 11.5771 9.19461C11.5414 9.25824 11.6874 9.40377 11.6886 9.34308C11.6011 9.27966 11.6844 9.21141 11.7625 9.29016C11.8293 9.2721 11.8453 9.10536 11.9956 9.13686C12.0208 9.04971 11.8625 8.86197 12.088 8.95542C12.205 8.99028 11.9767 9.11481 12.1443 9.08709C12.2103 9.0054 12.393 8.8941 12.4917 8.9193C12.4618 9.01611 12.6926 8.87184 12.7636 8.89809C12.7649 8.84349 12.579 8.79792 12.6817 8.745C12.8186 8.8227 12.9952 8.85294 13.1221 8.9403C13.0608 8.83593 12.981 8.70048 13.0923 8.59653C13.1112 8.54025 13.2231 8.30463 13.276 8.43588C13.1731 8.4867 13.4213 8.46423 13.3281 8.56671C13.2697 8.75361 13.3984 8.51484 13.4241 8.46255C13.482 8.49867 13.4667 8.63328 13.566 8.53815C13.6433 8.49405 13.8649 8.68011 13.7193 8.54235C13.587 8.4132 13.7294 8.32185 13.9081 8.33865C13.993 8.32038 13.8741 8.22147 13.9648 8.18283C14.0555 8.11878 14.2258 8.03772 14.3691 8.01777C14.461 8.04339 14.64 8.04738 14.5765 7.96317C14.7097 7.9743 14.6374 7.79118 14.792 7.77228ZM4.59986 7.78761C4.73846 7.83801 4.48583 8.07783 4.6763 7.96107C4.77122 7.97031 4.9577 8.19207 4.88588 8.01798C4.80818 7.95351 5.02532 7.84095 4.9913 7.96968C4.99277 8.0478 5.18975 8.04108 5.11436 8.15637C5.17841 8.04087 5.27165 8.22987 5.11142 8.18703C4.92011 8.18913 4.74266 8.35209 4.59944 8.18262C4.50704 8.13558 4.58411 8.08791 4.46042 8.10744C4.41401 8.05767 4.66076 7.99299 4.51124 8.01231C4.45748 8.12697 4.17986 8.04108 4.35626 7.94742C4.42262 7.86363 4.48226 7.81533 4.59986 7.78761ZM6.93086 7.7958C6.8225 7.8336 7.00688 7.83171 6.93086 7.7958V7.7958ZM13.0975 7.89534C13.3037 8.00013 12.9472 8.09358 12.851 8.1591C12.7061 8.27712 12.5727 8.4216 12.5517 8.58687C12.5511 8.66331 12.7315 8.7744 12.5242 8.74647C12.4217 8.74017 12.4354 8.62908 12.3394 8.61354C12.3814 8.50917 12.4427 8.37162 12.5131 8.2473C12.5261 8.12655 12.7267 8.0079 12.8831 7.99635C12.9719 7.98585 13.0081 7.90458 13.0975 7.89534ZM4.69667 7.89933C4.59713 7.94217 4.8401 7.95183 4.69667 7.89933V7.89933ZM5.42327 7.92852C5.53079 7.98228 5.47157 8.09757 5.48186 8.18199C5.42747 8.20677 5.26871 8.19879 5.32394 8.10723C5.1761 8.14776 5.31554 7.99698 5.17589 8.0331C5.06543 7.92033 5.22587 7.96716 5.26241 7.97157C5.30819 7.89639 5.39555 7.98249 5.42327 7.92852ZM9.06656 7.93419C8.89121 7.95897 9.17471 8.09883 9.0758 7.94805L9.06656 7.93419ZM16.3844 8.01945C16.4909 8.06649 16.5686 8.00265 16.6751 8.08728C16.7713 8.12424 17.0159 8.13201 16.9414 8.23008C16.7881 8.27922 16.7576 8.05704 16.639 8.19795C16.4571 8.31618 16.1587 8.15595 16.3844 8.01945ZM16.261 8.05977C16.3303 8.11584 16.2215 8.21181 16.2416 8.08959C16.2456 8.08035 16.2448 8.06334 16.261 8.05977ZM5.57678 8.09253C5.80211 8.1528 5.5562 8.36175 5.51378 8.157C5.52407 8.13243 5.54024 8.09946 5.57678 8.09253ZM4.37747 8.24499C4.53581 8.27019 4.65467 8.37477 4.75064 8.44533C4.82456 8.47389 4.859 8.48796 4.88714 8.44764C4.99928 8.54445 4.99613 8.28174 5.16245 8.36889C5.12444 8.50875 5.12192 8.70006 5.3147 8.76726C5.35649 8.84559 5.24477 8.97978 5.10743 8.91321C4.93691 8.97264 4.75757 8.97348 4.62548 8.87709C4.44299 8.83614 4.66391 8.74983 4.64438 8.75361C4.46315 8.78511 4.4936 8.54991 4.47512 8.55222C4.42325 8.62257 4.28129 8.7702 4.22165 8.61879C4.07318 8.53479 4.29179 8.37792 4.21745 8.26389C4.26575 8.24625 4.32455 8.24331 4.37747 8.24499ZM16.4905 8.27985C16.489 8.34831 16.7127 8.36742 16.5993 8.43588C16.4764 8.44449 16.4082 8.42076 16.4581 8.34117C16.4531 8.32206 16.4447 8.27229 16.4905 8.27985ZM5.71328 8.29602C5.85419 8.31177 5.80442 8.47032 5.6822 8.51652C5.63222 8.62635 5.74541 8.7828 5.7893 8.84349C5.77292 8.9403 5.93588 8.82165 5.92496 8.94366C5.91362 8.99742 5.96339 9.1251 5.98565 8.99826C6.07784 8.88675 5.99825 8.7828 5.86175 8.73975C5.76704 8.62341 5.78468 8.42034 5.96024 8.35902C6.08183 8.33697 6.03479 8.43861 6.16184 8.36574C6.36953 8.32311 6.48104 8.46318 6.56798 8.57805C6.69272 8.64462 6.86933 8.73135 6.88592 8.85903C6.9569 8.87877 6.77651 8.95563 6.92813 8.96949C7.00688 8.99637 7.20575 9.11523 7.10621 9.21309C7.07681 9.34539 6.95165 9.26265 6.91217 9.18516C6.83762 9.2847 7.1228 9.36702 6.98651 9.48903C6.88781 9.39957 6.99911 9.59781 6.86387 9.52809C6.67781 9.52263 6.63098 9.29121 6.43967 9.35253C6.28784 9.32313 6.39389 9.18915 6.5201 9.23031C6.57848 9.14211 6.6776 8.96361 6.45353 8.94261C6.39368 8.93778 6.42707 8.75067 6.29372 8.82921C6.06167 8.80359 6.31115 8.97999 6.21329 9.07722C6.2471 9.20322 5.9258 9.15072 6.09884 9.2364C6.16331 9.27126 6.40355 9.42918 6.18494 9.40545C6.11291 9.36135 5.98523 9.50457 5.9447 9.37269C5.98985 9.3141 5.99867 9.23178 5.94176 9.32586C5.80316 9.4191 5.66456 9.53019 5.61353 9.67089C5.61017 9.74733 5.7158 9.79311 5.74646 9.86241C5.90039 9.89391 6.06566 9.98001 6.19166 10.0199C6.13475 10.1068 6.35042 10.3122 6.31829 10.1264C6.25907 9.99639 6.53879 9.90714 6.34832 9.78366C6.29246 9.72612 6.42749 9.66543 6.37352 9.57681C6.32942 9.37773 6.66668 9.51759 6.76076 9.58794C6.75656 9.68454 6.89138 9.87102 6.94745 9.68517C7.04699 9.56043 7.09928 9.81789 7.14317 9.87585C7.17677 10.0096 7.43822 10.0256 7.42289 10.1736C7.40441 10.232 7.39727 10.3248 7.51634 10.3475C7.56926 10.4281 7.54763 10.5588 7.38614 10.4819C7.28387 10.4697 7.17908 10.4546 7.26728 10.3565C7.32713 10.2929 7.3139 10.2118 7.21415 10.2937C7.09025 10.3038 7.15577 10.4141 7.01381 10.3414C6.83531 10.2946 6.93191 10.3532 7.02137 10.3725C6.95837 10.4876 7.1354 10.5226 7.20596 10.476C7.26686 10.5827 7.00331 10.644 6.92414 10.647C6.96194 10.5168 6.63224 10.6936 6.77357 10.7471C6.59171 10.7551 6.50792 10.8748 6.49385 11.0088C6.44723 11.1323 6.12698 11.1818 6.26915 11.3488C6.34475 11.4223 6.22442 11.5531 6.17465 11.4217C6.17696 11.2963 5.96213 11.2375 5.86721 11.295C5.78216 11.3471 5.49047 11.2547 5.50244 11.4382C5.42663 11.5701 5.59043 11.8301 5.77397 11.6764C5.80106 11.5682 6.08456 11.5762 5.95289 11.7058C5.82983 11.8469 6.02912 11.7929 6.11879 11.8471C6.11606 11.9576 6.14987 12.1285 6.34454 12.0584C6.47978 12.0993 6.59234 11.9257 6.73178 11.9899C6.90146 12.0304 7.12154 11.9815 7.23956 12.1128C7.37123 12.2283 7.69127 12.1831 7.6772 12.3929C7.73537 12.4108 7.8326 12.4198 7.89161 12.4599C8.04617 12.5233 8.32085 12.5189 8.36831 12.6665C8.35949 12.8158 8.12954 12.9043 8.17217 13.0697C8.15915 13.2518 7.94159 13.2823 7.78703 13.3637C7.72508 13.517 7.61462 13.68 7.44326 13.7755C7.25699 13.7344 7.45754 13.9322 7.26203 13.9454C7.09613 13.9217 7.13057 14.0882 6.98147 14.075C7.12742 14.1176 6.94829 14.2447 6.87332 14.301C7.00751 14.3659 6.90482 14.4872 6.80423 14.5565C6.78239 14.6601 6.90923 14.7609 6.96719 14.8106C6.75908 14.8785 6.60137 14.7772 6.55664 14.6275C6.52808 14.5133 6.52619 14.3927 6.49469 14.3092C6.61292 14.272 6.57638 14.1777 6.53312 14.1361C6.55748 13.9996 6.57617 13.8625 6.6377 13.7321C6.6524 13.5259 6.7364 13.3215 6.70343 13.114C6.57218 13.0137 6.39683 12.9322 6.34286 12.7753C6.22106 12.6707 6.21623 12.5634 6.24479 12.4349C6.33257 12.341 6.44261 12.2379 6.34496 12.1195C6.24038 12.2041 6.02828 12.0829 5.95478 11.9805C5.77166 11.8872 5.58266 11.8423 5.37497 11.8076C5.21621 11.7679 5.0879 11.6976 5.06732 11.5714C4.92704 11.4723 4.82036 11.3173 4.70234 11.2278C4.75652 11.3414 4.90604 11.4483 4.93964 11.5624C4.79999 11.5588 4.775 11.407 4.65929 11.3671C4.72418 11.2971 4.54421 11.1741 4.47785 11.1096C4.32119 11.0245 4.24013 10.8597 4.23551 10.715C4.22963 10.5663 4.27751 10.3876 4.06898 10.307C4.06814 10.1738 3.92303 10.0632 3.85688 9.9336C3.76217 9.8433 3.65864 9.78597 3.51857 9.72255C3.41672 9.70512 3.21932 9.62889 3.16955 9.63645C3.26048 9.68349 2.99609 9.74859 2.95955 9.7236C2.99882 9.60873 2.94023 9.64905 2.90243 9.73263C2.90348 9.79899 2.83019 9.84393 2.94401 9.77337C3.04166 9.80697 2.83061 9.9693 2.83355 9.91407C2.87135 9.74124 2.68697 9.9672 2.59772 9.97707C2.57987 10.0352 2.23148 10.0869 2.43896 9.98211C2.51918 9.95964 2.75039 9.82209 2.66366 9.78975C2.60612 9.76203 2.45156 9.79941 2.48537 9.70491C2.3327 9.70323 2.24786 9.48651 2.42237 9.43401C2.53136 9.42246 2.58197 9.31011 2.44967 9.34917C2.28146 9.37479 2.28881 9.18957 2.36483 9.13707C2.42741 9.11061 2.50238 9.24459 2.49188 9.12363C2.35013 9.07449 2.23022 8.91048 2.42216 8.86743C2.5028 8.74353 2.71595 8.6001 2.89151 8.68599C3.04691 8.75529 3.24221 8.76642 3.42008 8.79939C3.57758 8.85399 3.72878 8.95101 3.87578 8.8164C3.95768 8.78154 4.05113 8.76348 4.09901 8.75214C4.14773 8.81892 4.1681 8.89998 4.20464 8.7828C4.28444 8.82249 4.48247 8.85945 4.61897 8.90019C4.74497 8.89305 4.71599 8.99637 4.70507 9.01359C4.86761 9.00204 4.96694 9.0096 5.10953 8.96214C5.19437 8.98545 5.45813 9.06483 5.39093 8.93274C5.34473 8.93085 5.44616 8.74164 5.49026 8.82879C5.55116 8.90901 5.6696 8.90754 5.5373 8.81976C5.48375 8.66772 5.59337 8.51148 5.56187 8.35146C5.5709 8.32332 5.6024 8.29959 5.64104 8.29833C5.66918 8.29427 5.69326 8.2935 5.71328 8.29602ZM5.50979 8.34075C5.45162 8.44407 5.60849 8.54571 5.49089 8.63727C5.37686 8.72715 5.33234 8.5434 5.24645 8.51211C5.18744 8.39031 5.4155 8.54508 5.31659 8.43294C5.21243 8.31828 5.42579 8.346 5.50979 8.34075ZM15.0091 8.37624C14.9281 8.38968 14.9157 8.5014 15.048 8.37729C15.0352 8.37445 15.0221 8.37424 15.0091 8.37624ZM18.3379 8.62236C18.5983 8.69124 18.1176 8.78616 18.2686 8.64294L18.3022 8.62614L18.3379 8.62236ZM13.3455 8.682C13.3329 8.73723 13.3052 8.96991 13.4043 8.91888C13.2962 8.87205 13.4106 8.74878 13.3455 8.682ZM13.7974 8.69418C13.7447 8.7807 13.8348 8.75718 13.7974 8.69418V8.69418ZM12.2392 8.84055C12.4291 8.88297 12.1198 9.02283 12.1836 8.88003C12.1991 8.86596 12.2126 8.84412 12.2392 8.84055ZM6.47537 8.96823C6.62888 9.03249 6.35252 9.15303 6.40607 9.00918C6.4109 8.98545 6.44093 8.96046 6.47537 8.96823ZM13.3749 8.98167C13.3186 9.03585 13.2949 9.18012 13.3766 9.0453C13.3833 9.02829 13.4163 8.98692 13.3749 8.98167ZM13.2798 9.12363C13.0918 9.14043 13.3319 9.16689 13.2798 9.12363V9.12363ZM8.92964 9.13224C9.01553 9.27 9.22091 9.06 9.3173 9.186C9.44561 9.30486 9.14426 9.4737 9.01385 9.3939C8.89709 9.41238 8.9225 9.3603 8.91935 9.3015C8.7944 9.32922 9.017 9.1944 8.8448 9.24144C8.80217 9.20952 8.88617 9.14274 8.92964 9.13224ZM4.40204 9.1545C4.34324 9.16752 4.4558 9.22674 4.34576 9.25236C4.31678 9.30486 4.47953 9.19356 4.52258 9.18936C4.48625 9.17256 4.43438 9.18432 4.40204 9.1545ZM18.6951 9.38235C18.6377 9.40251 18.7224 9.47412 18.6951 9.38235V9.38235ZM6.36659 9.3939C6.24143 9.43842 6.53648 9.47328 6.36659 9.3939V9.3939ZM6.17885 9.44556C6.27545 9.4884 5.99195 9.57786 6.12131 9.46572L6.15092 9.44934L6.17885 9.44556ZM6.29435 9.49281C6.40481 9.52893 6.19292 9.62133 6.2702 9.50058L6.29435 9.49281ZM4.74812 9.5388C4.66664 9.53943 4.60364 9.65577 4.71998 9.57765C4.71725 9.57156 4.76534 9.55245 4.74812 9.5388ZM11.3906 9.57513C11.3302 9.65745 11.5626 9.65325 11.4137 9.58059L11.3906 9.57513ZM2.32346 9.64443C2.2907 9.72927 2.38877 9.67404 2.32346 9.64443V9.64443ZM11.0301 9.7971C11.0028 9.90714 11.1464 9.83322 11.0301 9.7971V9.7971ZM10.8325 9.80571C10.9341 9.84834 10.7178 9.9399 10.801 9.82083L10.8104 9.81033L10.8325 9.80571ZM17.6621 9.98694C17.7904 10.0287 17.6218 10.0888 17.6402 9.9903L17.6621 9.98694ZM3.86549 10.0531C3.95369 10.0665 3.93605 10.2904 3.85562 10.1388C3.84554 10.1161 3.79703 10.0472 3.86549 10.0531ZM2.32367 10.0609C2.29007 10.1281 2.37029 10.0609 2.32367 10.0609V10.0609ZM5.44091 10.1197C5.43398 10.1438 5.51504 10.2198 5.46317 10.1264L5.44091 10.1197ZM17.9848 10.1354C17.8269 10.1732 18.1178 10.1759 17.9848 10.1354V10.1354ZM18.5651 10.1684C18.4834 10.2066 18.6484 10.2131 18.5651 10.1684V10.1684ZM18.648 10.1684C18.5661 10.2068 18.732 10.2127 18.648 10.1684V10.1684ZM18.2045 10.1879C18.0646 10.2192 18.2322 10.2534 18.2045 10.1879V10.1879ZM18.4557 10.2003C18.5426 10.2629 18.2694 10.2127 18.4359 10.2011L18.4557 10.2003ZM5.93063 10.4065C5.84747 10.4002 5.7305 10.5214 5.88191 10.459C5.95982 10.4326 5.94596 10.5384 6.04508 10.4743C6.05915 10.4258 5.97704 10.4086 5.93063 10.4065ZM12.3415 10.492C12.0664 10.5067 12.1798 10.7228 12.3016 10.8225C12.0864 10.9191 12.5429 11.056 12.4243 10.8673C12.3909 10.7734 12.3312 10.6753 12.2794 10.5982C12.3514 10.5478 12.5465 10.5588 12.3709 10.4932L12.3415 10.492ZM11.6815 10.5042C11.3856 10.5502 11.8211 10.5665 11.6815 10.5042V10.5042ZM16.9588 10.5178C16.8191 10.5489 16.9867 10.5831 16.9588 10.5178V10.5178ZM11.4444 10.5262C11.2806 10.5361 11.2004 10.8488 11.4538 10.7362C11.5815 10.6543 11.7724 10.8439 11.8713 10.7219C11.7844 10.6174 11.6281 10.5913 11.4965 10.5907C11.4496 10.576 11.5053 10.5254 11.4444 10.5262ZM12.7504 10.5384C12.5713 10.5544 12.76 10.7211 12.7806 10.5787C12.7823 10.574 12.7828 10.569 12.782 10.564C12.7813 10.5591 12.7793 10.5544 12.7763 10.5504C12.7733 10.5465 12.7694 10.5433 12.7649 10.5412C12.7603 10.5391 12.7554 10.5381 12.7504 10.5384ZM6.12425 10.5422C6.1379 10.6174 6.22631 10.7135 6.18179 10.5791C6.17129 10.5632 6.14903 10.5426 6.12425 10.5422ZM6.23177 10.5474C6.19502 10.5928 6.32669 10.5747 6.23177 10.5474V10.5474ZM16.866 10.5474C16.9311 10.5869 16.6959 10.669 16.8126 10.5737L16.8408 10.5552L16.866 10.5474ZM10.5781 10.5478C10.5183 10.6822 10.7791 10.7247 10.8385 10.8244C10.823 10.8729 10.7251 10.7667 10.7722 10.8576C10.7764 10.9685 10.5406 11.0306 10.5557 10.9076C10.7797 10.9185 10.6376 10.7799 10.5212 10.7444C10.4526 10.6541 10.3826 10.6008 10.2598 10.6814C10.1151 10.6344 10.104 10.7969 9.99665 10.8481C10.0408 10.9748 9.74885 10.9777 9.77552 11.0327C9.99224 11.0218 10.2004 10.9328 10.4276 10.951C10.5695 10.983 10.3688 11.1711 10.6036 11.143C10.7044 11.1825 10.8549 11.3072 10.906 11.1652C11.0779 11.1064 11.2552 11.2742 11.4461 11.2037C11.6286 11.2801 11.7021 10.9139 11.4755 11.0122C11.3348 11.0273 11.1626 10.976 11.1745 10.8605C11.1787 10.7177 10.9975 10.8654 11.0807 10.9342C10.9656 11.1109 10.8749 10.8009 10.8194 10.7268C10.7329 10.6629 10.6357 10.6111 10.5781 10.5478ZM6.01064 10.555C5.88674 10.5712 5.98187 10.8263 5.96969 10.6505C5.96024 10.6153 6.01295 10.5827 6.01064 10.555ZM10.3915 10.6825C10.4889 10.7232 10.3847 10.9899 10.3457 10.8236C10.3518 10.7778 10.3467 10.7175 10.3915 10.6825ZM12.4268 10.7513C12.3932 10.8001 12.5263 10.7709 12.4268 10.7513V10.7513ZM10.129 10.8194C9.98069 10.8435 10.2069 10.9009 10.129 10.8194V10.8194ZM12.2434 11.2915C12.1531 11.3566 12.3715 11.4177 12.3615 11.4798C12.4007 11.568 12.6294 11.3872 12.5248 11.4154C12.3858 11.4429 12.3316 11.3389 12.2434 11.2915ZM9.32717 11.3219C9.25115 11.3807 9.39647 11.3597 9.32717 11.3219V11.3219ZM9.21566 11.3284C9.38828 11.3519 9.15539 11.4175 9.19802 11.337L9.21566 11.3284ZM11.5649 11.3746C11.5826 11.4956 11.7107 11.6262 11.759 11.7493C11.777 11.8001 11.9119 11.9269 11.9375 11.8956C11.9161 11.7484 11.7596 11.6539 11.7002 11.5233C11.654 11.475 11.6407 11.4049 11.5649 11.3748M6.35609 11.395C6.44702 11.4082 6.42749 11.4779 6.35483 11.4212C6.30191 11.4336 6.32753 11.3906 6.35609 11.395ZM15.6116 11.4586C15.6929 11.5258 15.5257 11.7148 15.5369 11.53C15.5453 11.4996 15.5757 11.4721 15.6116 11.4586ZM6.36302 11.4611C6.28007 11.5493 6.49133 11.5201 6.36302 11.4611V11.4611ZM6.17822 11.5388C6.33404 11.5632 6.62279 11.6144 6.61691 11.7516C6.53585 11.7835 6.43127 11.7339 6.53522 11.7012C6.39116 11.6949 6.25802 11.5718 6.13412 11.6224C5.97641 11.6319 6.07637 11.5529 6.17822 11.5388ZM6.55622 11.5527C6.43736 11.6046 6.67655 11.6048 6.55622 11.5527V11.5527ZM2.62229 11.5857C2.54144 11.6247 2.70587 11.6296 2.62229 11.5857V11.5857ZM2.67521 11.6025C2.78399 11.5926 2.91545 11.7818 2.76803 11.6938C2.76929 11.651 2.62838 11.6371 2.67521 11.6025ZM6.59318 11.6172C6.50624 11.6671 6.65765 11.6493 6.59318 11.6172V11.6172ZM6.69692 11.668C6.80213 11.6648 6.90524 11.7732 6.73094 11.7553C6.63875 11.8337 6.61334 11.6617 6.69692 11.668ZM6.39872 11.7196C6.22169 11.7648 6.61229 11.7829 6.39872 11.7196V11.7196ZM6.90356 11.7205C6.72338 11.7648 7.0724 11.786 6.90356 11.7205V11.7205ZM15.5766 11.7222C15.7851 11.727 15.5192 11.9026 15.7093 11.8977C15.8126 11.987 15.665 11.9502 15.6181 11.9523C15.7588 11.9677 15.6524 12.1644 15.804 12.0601C15.9373 12.1189 15.7832 12.3097 15.7093 12.1667C15.5241 12.1999 15.7326 12.0953 15.6263 12.0414C15.5663 11.9362 15.485 11.828 15.5768 11.7222M15.5224 11.9979C15.59 12.0777 15.2889 12.1942 15.4539 12.0508C15.4749 12.0319 15.4934 12.0099 15.5224 11.9979ZM17.7049 11.9979C17.6033 12.0302 17.7805 12.0382 17.7049 11.9979V11.9979ZM17.715 12.0659C17.6323 12.1199 17.8521 12.1296 17.715 12.0659V12.0659ZM17.9008 12.0884C17.8284 12.1142 17.9708 12.1499 17.9008 12.0884V12.0884ZM15.3903 12.1455C15.4273 12.1772 15.5148 12.2085 15.5232 12.2407C15.385 12.2957 15.5673 12.3952 15.4247 12.4523C15.4235 12.6103 15.048 12.5951 15.0507 12.4486C14.9625 12.302 15.2658 12.3064 15.3405 12.2029C15.3594 12.1848 15.3737 12.1646 15.3903 12.1455ZM15.5959 12.1955C15.544 12.2304 15.6767 12.2417 15.5959 12.1955V12.1955ZM14.4379 12.2201C14.6364 12.2608 14.7452 12.4175 14.9203 12.4649C14.9401 12.5193 15.0973 12.5376 14.9359 12.5307C14.834 12.6823 15.1769 12.6205 15.266 12.6896C15.3827 12.8024 15.0375 12.7022 14.9531 12.7008C14.8061 12.651 14.6899 12.5477 14.6053 12.4446C14.5795 12.3784 14.5062 12.3461 14.4337 12.3123C14.4029 12.2925 14.3554 12.2062 14.4379 12.2201ZM15.901 12.3337C16.0598 12.382 15.8569 12.5164 15.8701 12.374C15.8739 12.3622 15.8781 12.3362 15.901 12.3337ZM15.7698 12.353C15.8811 12.4162 15.455 12.4324 15.6299 12.4433C15.7952 12.425 15.5925 12.5069 15.6677 12.5802C15.6049 12.6388 15.5684 12.5235 15.5688 12.6315C15.435 12.6277 15.4699 12.3694 15.6045 12.3648C15.6604 12.3748 15.7179 12.3736 15.7698 12.353ZM11.4992 12.4261C11.3375 12.52 11.6074 12.4761 11.4992 12.4261V12.4261ZM16.1486 12.4303C16.2255 12.4366 16.2162 12.5741 16.2948 12.4966C16.3439 12.4441 16.4103 12.4752 16.4735 12.4916C16.6465 12.5042 16.757 12.663 16.9351 12.6012C16.9939 12.5229 17.1591 12.5473 17.0428 12.6271C16.959 12.6607 16.7293 12.6418 16.9046 12.7415C17.0978 12.8675 16.7582 12.7955 16.7135 12.7218C16.6314 12.7008 16.5497 12.828 16.4558 12.7329C16.3078 12.7627 16.3809 12.7029 16.3697 12.638C16.2754 12.5966 15.9573 12.5401 16.0801 12.4391L16.1102 12.4362C16.1223 12.4312 16.1355 12.4293 16.1486 12.4303ZM16.7914 12.4754C16.6898 12.5109 16.8691 12.5074 16.7914 12.4754V12.4754ZM16.946 12.4918C16.8651 12.5309 17.0296 12.5359 16.946 12.4918V12.4918ZM15.96 12.5137C16.2494 12.547 15.7009 12.6136 15.8435 12.5254C15.8819 12.5179 15.9209 12.5139 15.96 12.5137ZM17.1451 12.6109C17.2706 12.6445 17.2757 12.7293 17.4 12.7159C17.5422 12.7762 17.3364 12.8156 17.3366 12.7281C17.2496 12.7434 17.1927 12.6586 17.1379 12.6222L17.1451 12.6109ZM15.8517 12.6966C15.9909 12.7717 15.5472 12.8457 15.7612 12.7346C15.7868 12.7169 15.8141 12.6953 15.8517 12.6966ZM15.6207 12.7129C15.6841 12.7195 15.7175 12.7444 15.602 12.7486C15.5207 12.7724 15.284 12.7356 15.4846 12.7155L15.5159 12.7142L15.5524 12.7138C15.5755 12.7104 15.5995 12.7106 15.6207 12.7129ZM16.5963 12.7982C16.6738 12.9099 16.7322 13.029 16.8217 13.1287C16.947 13.2258 17.1073 13.3429 17.0963 13.4914C17.1104 13.6418 16.9758 13.7728 16.9241 13.9068C16.7872 13.9824 16.5226 13.9942 16.4439 13.8539C16.3653 13.7848 16.2164 13.7846 16.1694 13.6821C16.0199 13.6029 15.8204 13.6703 15.6843 13.7289C15.5331 13.7751 15.2653 13.8396 15.3147 13.6304C15.2979 13.4988 15.1916 13.3772 15.2467 13.2405C15.3531 13.147 15.6221 13.1775 15.673 13.0143C15.7597 12.982 15.8542 12.8723 15.9508 12.95C16.0348 12.8184 16.1602 12.8068 16.3319 12.8597C16.2458 12.9526 16.3905 13.0571 16.5033 13.0387C16.5554 12.9652 16.4873 12.8427 16.5963 12.7982ZM11.9641 12.8297C11.915 12.9269 12.041 12.8318 11.9641 12.8297V12.8297ZM12.2241 12.8553C12.3921 12.9523 12.2115 13.1275 12.197 13.2526C12.1979 13.4148 11.9108 13.4101 11.9543 13.2424C11.9996 13.1275 11.9599 12.9904 12.1454 12.9414C12.1697 12.9108 12.1823 12.8698 12.2241 12.8553ZM12.0297 12.8576C11.9583 12.8912 12.1418 12.9093 12.0297 12.8576V12.8576ZM17.5619 13.151C17.6423 13.1588 17.7971 13.3207 17.6264 13.2392C17.6075 13.2232 17.5144 13.1689 17.5619 13.151ZM12.5244 13.1838C12.4446 13.2241 12.608 13.227 12.5244 13.1838V13.1838ZM16.3244 13.7445C16.2429 13.7898 16.3765 13.7802 16.3244 13.7445V13.7445ZM17.9823 13.7501C18.0995 13.7831 18.0989 13.9234 18.2415 13.8896C18.2326 13.9967 18.1071 14.0586 18.0231 14.1412C17.9462 14.2214 17.8691 14.3738 17.715 14.3774C17.7171 14.3108 17.6218 14.2674 17.753 14.2052C17.8643 14.142 17.9382 14.0189 18.0607 14.0196C17.9678 13.9608 18.0869 13.8558 17.9741 13.7806C17.9743 13.7776 17.9552 13.7413 17.9823 13.7501ZM16.7236 14.0315C16.7389 14.0296 16.7545 14.0297 16.7698 14.032C17.0092 14.0173 16.7227 14.3255 16.6912 14.1021C16.66 14.0624 16.6824 14.0374 16.7236 14.0315ZM7.34288 15.4089C7.39979 15.461 7.21499 15.5605 7.22759 15.6546C7.16753 15.8577 7.20932 16.07 7.22339 16.276C7.2341 16.3583 7.28786 16.4287 7.19399 16.477C7.20575 16.5226 7.20029 16.5765 7.21415 16.6139H5.27123C5.27858 16.5681 5.26115 16.4963 5.28467 16.4606C5.14964 16.4495 5.19017 16.2157 5.38799 16.255C5.49173 16.2512 5.57447 16.2281 5.60702 16.326C5.81198 16.2981 6.01064 16.3319 6.21077 16.3634C6.34811 16.3823 6.40985 16.264 6.53039 16.3604C6.59633 16.3762 6.66101 16.4549 6.63035 16.352C6.54593 16.2735 6.4634 16.1916 6.55664 16.1471C6.44156 16.1303 6.56273 16.0786 6.54194 16.0148C6.63266 15.9669 6.73304 15.8751 6.8141 15.9551C6.93422 15.8739 6.80843 15.7334 6.9527 15.6578C7.05374 15.5363 7.19012 15.4493 7.34288 15.4089ZM16.2723 15.5566C16.2402 15.7088 16.5121 15.6836 16.6444 15.7149C16.7782 15.7267 16.803 15.8842 16.9865 15.8539C17.1243 15.8499 17.1986 15.9308 17.3137 15.9409C17.426 16.0448 17.5359 16.1202 17.7156 16.1118C17.8412 16.1666 17.9288 16.2277 17.8549 16.3411C17.7625 16.4167 17.7158 16.5461 17.623 16.6139H8.83661C8.95736 16.5244 9.07349 16.4421 9.14951 16.3214C9.34565 16.2976 9.42608 16.1578 9.5819 16.0897C9.72155 16.0696 9.9557 16.066 9.94982 15.9217C10.0481 15.9348 10.0691 16.0639 10.2157 16.0253C10.3843 16.0333 10.5611 16.0326 10.6888 15.9598C10.8358 16.0232 11.0756 16.0769 11.2451 16.0188C11.3383 15.9969 11.3984 15.9167 11.5051 15.94C11.5269 15.7918 11.7869 16.1275 11.8352 15.9081C11.9541 15.8172 12.1164 15.7802 12.2474 15.7252C12.3207 15.6796 12.5078 15.5677 12.6322 15.6899C12.7313 15.8167 13.0028 15.7754 13.1765 15.8083C13.2563 15.8283 13.2659 15.9079 13.3613 15.8592C13.4465 15.9503 13.5732 15.9902 13.6059 15.8613C13.7332 15.8214 13.8002 15.7483 13.7368 15.6464C13.8035 15.5826 13.9243 15.7422 14.0324 15.646C14.129 15.7193 14.4237 15.7269 14.4025 15.566C14.5108 15.5416 14.5686 15.6584 14.6752 15.5803C14.7395 15.613 14.8382 15.5234 14.8844 15.628C15.0188 15.8062 15.2059 15.5047 15.3246 15.6672C15.414 15.6874 15.6066 15.7699 15.5803 15.6217C15.6328 15.5983 15.6742 15.7082 15.7567 15.6538C15.8794 15.6492 15.9636 15.7951 16.0054 15.6353C16.1331 15.6647 16.207 15.6065 16.2723 15.5566ZM4.25273 16.4213C4.27163 16.4241 4.29256 16.431 4.31552 16.4419C4.45013 16.4797 4.5902 16.5177 4.73426 16.5028C4.81196 16.5217 4.97576 16.5994 5.00201 16.6026C5.02091 16.5005 5.16161 16.5318 5.17106 16.6137H3.67229C3.8132 16.5658 3.96482 16.5337 4.10699 16.4841C4.1534 16.4379 4.19561 16.4127 4.25273 16.4213Z" fill="#D2DDDA"/>
</svg>
