<svg width="24" height="24" viewBox="0 0 24 24" fill="none" xmlns="http://www.w3.org/2000/svg">
<path d="M6.33044 21.0764C5.21853 20.9483 4.18288 20.447 3.39249 19.6546C2.60209 18.8621 2.10363 17.8251 1.97843 16.7129C1.79895 15.0317 1.64746 13.3044 1.64746 11.5458C1.64746 9.78719 1.79895 8.05989 1.97843 6.37869C2.10363 5.26645 2.60209 4.22948 3.39249 3.43699C4.18288 2.6445 5.21853 2.1433 6.33044 2.01516C8.02151 1.83074 9.75705 1.66772 11.5272 1.66772C13.2973 1.66772 15.0345 1.83074 16.7239 2.01845C17.8355 2.14694 18.8708 2.6483 19.6608 3.44076C20.4509 4.23321 20.9491 5.26999 21.0742 6.38199C21.2554 8.06154 21.4069 9.78884 21.4069 11.5474C21.4069 13.306 21.2554 15.0333 21.0759 16.7145C20.9507 17.8267 20.4522 18.8637 19.6618 19.6562C18.8714 20.4487 17.8358 20.9499 16.7239 21.078C15.7839 21.1847 14.8418 21.2726 13.8983 21.3415V16.288H17.0598V12.3362H13.8983V10.7554C13.8983 9.88269 14.6063 9.17465 15.479 9.17465H17.0598V6.80352C17.0598 6.38428 16.8932 5.98221 16.5968 5.68576C16.3004 5.38931 15.8983 5.22277 15.479 5.22277H14.6887C13.4309 5.22277 12.2247 5.7224 11.3354 6.61174C10.446 7.50109 9.94641 8.7073 9.94641 9.96503V12.3362H6.7849V16.288H9.94641V21.386C8.73813 21.3208 7.53221 21.2175 6.33044 21.0764Z" stroke="white" stroke-width="1.64662" stroke-linecap="round" stroke-linejoin="round"/>
</svg>
