<svg width="50" height="50" viewBox="0 0 50 50" fill="none" xmlns="http://www.w3.org/2000/svg">
<path d="M21.8375 12.5489C19.3436 12.9898 16.9587 11.3171 16.5194 8.82621C16.08 6.3353 17.7512 3.9459 20.2436 3.50803C22.736 3.06712 25.1224 4.73984 25.5618 7.23075C26.0012 9.72166 24.33 12.1111 21.8375 12.5489ZM20.7951 6.6353C20.0269 6.76863 19.5118 7.505 19.6481 8.27166C19.783 9.04136 20.5178 9.55651 21.2875 9.42015C22.0572 9.28378 22.5709 8.55045 22.4345 7.78378C22.2997 7.01409 21.5633 6.50045 20.7951 6.6353Z" fill="#58595B"/>
<path d="M17.709 13.36C16.9559 12.8888 16.2984 12.2767 15.7984 11.5312L7.87109 19.6964L12.3211 18.9116L17.709 13.36Z" fill="#58595B"/>
<path d="M27.1648 9.52344C26.9481 10.3962 26.5405 11.1977 25.9966 11.8992L32.9572 15.2734L37.4087 14.4856L27.1648 9.52344Z" fill="#58595B"/>
<path d="M42.6332 14.4393L2.94376 21.4378C1.50436 21.6893 0.543758 23.062 0.796788 24.5029L4.30133 44.3741C4.55436 45.812 5.92861 46.7711 7.36648 46.5196L47.0544 39.5211C48.4938 39.2665 49.4544 37.8938 49.2013 36.4559L45.6968 16.5847C45.4438 15.1468 44.071 14.1847 42.6332 14.4393ZM13.6119 29.6726L10.7438 30.1756L11.0362 31.8332L13.5589 31.3893L13.971 33.7241L11.4483 34.1711L12.1619 38.2196L9.32103 38.7196L7.48012 28.2817L13.1892 27.2756L13.6119 29.6726ZM22.9922 36.3105L21.4983 33.4817C21.2528 33.0196 20.8407 32.7059 20.2938 32.8044L19.8468 32.8847L20.5271 36.7468L17.7028 37.2438L15.9316 27.1968C16.7862 26.659 17.9771 26.2408 19.2741 26.0135C22.071 25.5196 23.7089 26.4635 24.0907 28.6271C24.3256 29.9681 23.6119 30.8817 22.9135 31.3908L22.918 31.4211C23.5407 31.6665 24.0241 32.209 24.3938 32.8711L26.0059 35.7802L22.9922 36.3105ZM32.6362 26.3165L29.7544 26.8256L30.0453 28.4802L32.5831 28.0332L32.9938 30.3711L30.4574 30.8181L30.7483 32.4787L33.6316 31.9665L34.0513 34.3605L28.3438 35.3635L26.5028 24.9302L32.2104 23.9241L32.6362 26.3165ZM41.1316 24.8196L38.2468 25.3287L38.5392 26.9817L41.0786 26.5347L41.4892 28.8726L38.9498 29.3196L39.2422 30.9771L42.1256 30.4681L42.5468 32.859L36.8377 33.865L34.9968 23.4317L40.7059 22.4226L41.1316 24.8196Z" fill="#00A79D"/>
<path d="M19.7258 28.1469C19.4803 28.1909 19.2091 28.253 19.0439 28.3272L19.4924 30.8787L20.2712 30.7424C21.1364 30.5878 21.4303 30.0621 21.2955 29.2984C21.1303 28.3606 20.6758 27.9818 19.7258 28.1469Z" fill="#00A79D"/>
</svg>
