<svg width="21" height="22" viewBox="0 0 21 22" fill="none" xmlns="http://www.w3.org/2000/svg">
<path fill-rule="evenodd" clip-rule="evenodd" d="M9.19647 6.28992C8.74322 7.46329 8.44834 9.12929 8.44834 11.0018C8.44834 12.8743 8.74322 14.5403 9.19734 15.7137C9.42484 16.3025 9.68034 16.7339 9.93059 17.0069C10.1808 17.2799 10.3733 17.3438 10.5002 17.3438C10.6271 17.3438 10.8205 17.2799 11.0707 17.0069C11.3201 16.7339 11.5756 16.3025 11.8031 15.7137C12.2581 14.5403 12.5521 12.8743 12.5521 11.0018C12.5521 9.12929 12.2572 7.46329 11.8031 6.28992C11.5756 5.70104 11.3201 5.26967 11.0698 4.99667C10.8196 4.72366 10.6271 4.65979 10.5002 4.65979C10.3733 4.65979 10.18 4.72366 9.93059 4.99667C9.68122 5.26967 9.42397 5.70104 9.19647 6.28992ZM8.96284 4.11116C9.36097 3.67454 9.87984 3.34729 10.5011 3.34729C11.1223 3.34729 11.6412 3.67454 12.0393 4.11029C12.4375 4.54517 12.7656 5.13842 13.0281 5.81654C13.554 7.17542 13.8655 9.00942 13.8655 11.0018C13.8655 12.9942 13.554 14.8282 13.0281 16.187C12.7656 16.8643 12.4375 17.4584 12.0393 17.8933C11.6412 18.3282 11.1223 18.6563 10.5011 18.6563C9.87984 18.6563 9.36097 18.3282 8.96284 17.8933C8.56472 17.4584 8.23659 16.8652 7.97409 16.187C7.44822 14.8282 7.13672 12.9942 7.13672 11.0018C7.13672 9.00942 7.44822 7.17542 7.97409 5.81654C8.23659 5.13842 8.56472 4.54604 8.96284 4.11116Z" fill="#D2DDDA"/>
<path fill-rule="evenodd" clip-rule="evenodd" d="M10.5 4.65271C9.66693 4.65271 8.84201 4.8168 8.07235 5.1356C7.30269 5.4544 6.60336 5.92168 6.01429 6.51075C5.42522 7.09982 4.95794 7.79915 4.63914 8.56881C4.32034 9.33847 4.15625 10.1634 4.15625 10.9965C4.15625 11.8295 4.32034 12.6544 4.63914 13.4241C4.95794 14.1938 5.42522 14.8931 6.01429 15.4822C6.60336 16.0712 7.30269 16.5385 8.07235 16.8573C8.84201 17.1761 9.66693 17.3402 10.5 17.3402C12.1825 17.3402 13.796 16.6719 14.9857 15.4822C16.1754 14.2925 16.8438 12.6789 16.8438 10.9965C16.8438 9.31399 16.1754 7.70044 14.9857 6.51075C13.796 5.32107 12.1825 4.65271 10.5 4.65271ZM2.84375 10.9965C2.84375 8.9659 3.65039 7.0185 5.08621 5.58267C6.52204 4.14685 8.46944 3.34021 10.5 3.34021C12.5306 3.34021 14.478 4.14685 15.9138 5.58267C17.3496 7.0185 18.1562 8.9659 18.1562 10.9965C18.1562 13.027 17.3496 14.9744 15.9138 16.4102C14.478 17.8461 12.5306 18.6527 10.5 18.6527C8.46944 18.6527 6.52204 17.8461 5.08621 16.4102C3.65039 14.9744 2.84375 13.027 2.84375 10.9965Z" fill="#D2DDDA"/>
<path fill-rule="evenodd" clip-rule="evenodd" d="M2.84375 10.9912C2.84375 10.8172 2.91289 10.6502 3.03596 10.5272C3.15903 10.4041 3.32595 10.335 3.5 10.335L17.5 10.3455C17.674 10.3455 17.841 10.4146 17.964 10.5377C18.0871 10.6607 18.1562 10.8277 18.1562 11.0017C18.1562 11.1758 18.0871 11.3427 17.964 11.4658C17.841 11.5888 17.674 11.658 17.5 11.658L3.5 11.6483C3.32595 11.6483 3.15903 11.5792 3.03596 11.4561C2.91289 11.3331 2.84375 11.1661 2.84375 10.9921" fill="#D2DDDA"/>
</svg>
