<svg width="16" height="16" viewBox="0 0 16 16" fill="none" xmlns="http://www.w3.org/2000/svg">
<path fill-rule="evenodd" clip-rule="evenodd" d="M1.33301 4.5715C1.33301 3.71272 1.67415 2.88913 2.2814 2.28188C2.88864 1.67464 3.71224 1.3335 4.57101 1.3335H7.99967C8.17649 1.3335 8.34605 1.40373 8.47108 1.52876C8.5961 1.65378 8.66634 1.82335 8.66634 2.00016C8.66634 2.17697 8.5961 2.34654 8.47108 2.47157C8.34605 2.59659 8.17649 2.66683 7.99967 2.66683H4.57101C4.06586 2.66683 3.5814 2.8675 3.2242 3.22469C2.86701 3.58189 2.66634 4.06635 2.66634 4.5715V11.4288C2.66634 11.934 2.86701 12.4184 3.2242 12.7756C3.5814 13.1328 4.06586 13.3335 4.57101 13.3335H11.4283C11.9335 13.3335 12.4179 13.1328 12.7751 12.7756C13.1323 12.4184 13.333 11.934 13.333 11.4288V8.00016C13.333 7.82335 13.4032 7.65378 13.5283 7.52876C13.6533 7.40373 13.8229 7.3335 13.9997 7.3335C14.1765 7.3335 14.3461 7.40373 14.4711 7.52876C14.5961 7.65378 14.6663 7.82335 14.6663 8.00016V11.4288C14.6663 12.2876 14.3252 13.1112 13.718 13.7184C13.1107 14.3257 12.2871 14.6668 11.4283 14.6668H4.57101C3.71224 14.6668 2.88864 14.3257 2.2814 13.7184C1.67415 13.1112 1.33301 12.2876 1.33301 11.4288V4.5715Z" fill="#F74FB3"/>
<path fill-rule="evenodd" clip-rule="evenodd" d="M10.0911 8.8129L8.62106 9.69956L7.9324 8.55756L9.4024 7.6709L9.4044 7.66956C9.46074 7.63563 9.51269 7.59488 9.55906 7.54823L12.8991 4.1909C12.9325 4.15717 12.9648 4.12226 12.9957 4.08623C13.2164 3.8289 13.5431 3.31956 13.1477 2.92223C12.8137 2.58623 12.3351 2.90356 12.0251 3.17623C11.9419 3.24954 11.8618 3.32627 11.7851 3.40623L11.7624 3.4289L8.46906 6.7389C8.39087 6.81663 8.32959 6.90969 8.28906 7.01223L7.73973 8.39423C7.72931 8.42024 7.72735 8.44886 7.73412 8.47604C7.74089 8.50323 7.75605 8.52759 7.77745 8.54567C7.79885 8.56375 7.8254 8.57463 7.85333 8.57676C7.88127 8.5789 7.9085 8.57218 7.9324 8.55756L8.62106 9.69956C7.41773 10.4249 5.98106 9.20623 6.50106 7.9009L7.05106 6.51956C7.15815 6.24963 7.31921 6.0044 7.5244 5.7989L10.8171 2.48823L10.8364 2.4689C10.9344 2.3689 11.2637 2.03156 11.6631 1.7889C11.8811 1.65756 12.2291 1.48356 12.6591 1.45023C13.1524 1.4109 13.6791 1.56623 14.0924 1.98156C14.4088 2.29409 14.6077 2.70613 14.6557 3.14823C14.6888 3.49283 14.6361 3.84024 14.5024 4.15956C14.3091 4.63756 13.9864 4.9889 13.8444 5.1309L10.5044 8.48823C10.38 8.61312 10.2422 8.72134 10.0911 8.8129ZM13.0597 4.06223C13.0597 4.06223 13.0571 4.06423 13.0511 4.06623L13.0597 4.06223Z" fill="#F74FB3"/>
</svg>
