<svg width="21" height="21" viewBox="0 0 21 21" fill="none" xmlns="http://www.w3.org/2000/svg">
<path d="M10.5849 18.1415C14.8052 18.1415 18.2264 14.7203 18.2264 10.5C18.2264 6.27974 14.8052 2.85852 10.5849 2.85852C6.36458 2.85852 2.94336 6.27974 2.94336 10.5C2.94336 14.7203 6.36458 18.1415 10.5849 18.1415Z" stroke="#919499" stroke-width="1.69811" stroke-linecap="round" stroke-linejoin="round"/>
<path d="M9.99588 8.58033L13.1314 7.95288L12.504 11.0884C12.4383 11.4171 12.2769 11.719 12.0399 11.956C11.803 12.1931 11.5013 12.3547 11.1727 12.4206L8.03711 13.0472L8.66456 9.91165C8.7304 9.58316 8.89192 9.28149 9.12882 9.04459C9.36572 8.8077 9.66739 8.64617 9.99588 8.58033Z" stroke="#919499" stroke-width="1.69811" stroke-linecap="round" stroke-linejoin="round"/>
</svg>
