<svg width="20" height="20" viewBox="0 0 20 20" fill="none" xmlns="http://www.w3.org/2000/svg">
<path d="M13.2224 3.07849H6.30094C5.22113 3.07849 4.18554 3.50745 3.42199 4.27099C2.65845 5.03454 2.22949 6.07013 2.22949 7.14994V12.85C2.22949 13.3846 2.3348 13.9141 2.53941 14.4081C2.74402 14.902 3.04392 15.3509 3.42199 15.7289C4.18554 16.4925 5.22113 16.9214 6.30094 16.9214H13.2224C13.7571 16.9214 14.2865 16.8161 14.7805 16.6115C15.2745 16.4069 15.7233 16.107 16.1014 15.7289C16.4794 15.3509 16.7793 14.902 16.9839 14.4081C17.1886 13.9141 17.2939 13.3846 17.2939 12.85V7.14994C17.2939 6.61527 17.1886 6.08584 16.9839 5.59187C16.7793 5.09789 16.4794 4.64906 16.1014 4.27099C15.7233 3.89292 15.2745 3.59302 14.7805 3.38841C14.2865 3.1838 13.7571 3.07849 13.2224 3.07849Z" stroke="#131517" stroke-width="1.22144" stroke-linecap="round" stroke-linejoin="round"/>
<path d="M2.43262 14.0716L4.67192 11.4658C4.96493 11.1748 5.3495 10.994 5.76052 10.9539C6.17155 10.9138 6.5838 11.017 6.9275 11.246C7.2712 11.4749 7.68345 11.5781 8.09448 11.538C8.50551 11.498 8.89007 11.3171 9.18308 11.0261L11.0804 9.12882C11.6255 8.58181 12.3473 8.2463 13.117 8.18217C13.8866 8.11803 14.6539 8.32944 15.2821 8.77868L17.3097 10.3503M6.50407 8.50996C6.68158 8.50996 6.85735 8.475 7.02135 8.40707C7.18535 8.33914 7.33436 8.23957 7.45988 8.11405C7.5854 7.98853 7.68497 7.83952 7.7529 7.67552C7.82083 7.51152 7.85579 7.33575 7.85579 7.15824C7.85579 6.98073 7.82083 6.80496 7.7529 6.64096C7.68497 6.47696 7.5854 6.32795 7.45988 6.20243C7.33436 6.07691 7.18535 5.97734 7.02135 5.90941C6.85735 5.84148 6.68158 5.80652 6.50407 5.80652C6.14557 5.80652 5.80175 5.94893 5.54826 6.20243C5.29476 6.45593 5.15235 6.79974 5.15235 7.15824C5.15235 7.51674 5.29476 7.86056 5.54826 8.11405C5.80175 8.36755 6.14557 8.50996 6.50407 8.50996Z" stroke="#131517" stroke-width="1.22144" stroke-linecap="round" stroke-linejoin="round"/>
</svg>
