<svg width="20" height="20" viewBox="0 0 20 20" fill="none" xmlns="http://www.w3.org/2000/svg">
<path fill-rule="evenodd" clip-rule="evenodd" d="M14.247 0.9885C13.614 0.357 12.9435 0 12.141 0C11.361 0 10.521 0.3375 9.543 0.9345L9.5235 0.9465L8.889 1.3905C5.96949 3.43249 3.43099 5.97099 1.389 8.8905L0.9465 9.525L0.933 9.5445C0.336 10.5225 0 11.3625 0 12.1395C0 12.942 0.3555 13.614 0.9885 14.2455L1.101 14.358C1.539 14.7975 2.196 14.628 2.5335 14.2905C2.88518 13.9388 3.36215 13.7413 3.8595 13.7413C4.35685 13.7413 4.83382 13.9388 5.1855 14.2905C5.53718 14.6422 5.73475 15.1192 5.73475 15.6165C5.73475 16.1138 5.53718 16.5908 5.1855 16.9425C4.8495 17.28 4.68 17.937 5.118 18.375L5.2305 18.489C5.8635 19.1205 6.534 19.4775 7.3365 19.4775C8.1165 19.4775 8.9565 19.14 9.9345 18.543L9.954 18.531L10.587 18.087C13.5065 16.045 16.045 13.5065 18.087 10.587L18.531 9.9525L18.5445 9.933C19.1415 8.955 19.4775 8.115 19.4775 7.3365C19.4775 6.5325 19.122 5.862 18.489 5.2305L18.3765 5.1165C17.937 4.6785 17.2815 4.848 16.944 5.184C16.5905 5.52565 16.1169 5.71477 15.6253 5.71064C15.1337 5.70651 14.6633 5.50945 14.3156 5.16191C13.9678 4.81436 13.7705 4.34415 13.7661 3.85253C13.7617 3.36091 13.9506 2.88723 14.292 2.5335C14.628 2.196 14.7975 1.539 14.3595 1.101L14.247 0.9885Z" fill="#919499"/>
</svg>
