<svg width="29" height="29" viewBox="0 0 29 29" fill="none" xmlns="http://www.w3.org/2000/svg">
<path d="M18.7231 10.7559C17.6991 10.7559 16.7765 11.6023 16.7765 12.6744C16.7765 13.7465 17.6991 14.5938 18.7231 14.5938C19.7562 14.5938 20.6453 13.7374 20.6453 12.6744C20.6453 11.6123 19.7572 10.7559 18.7231 10.7559ZM17.6827 12.6744C17.6827 12.1325 18.1703 11.6621 18.7231 11.6621C19.2669 11.6621 19.739 12.1225 19.739 12.6744C19.739 13.2272 19.266 13.6876 18.7231 13.6876C18.1703 13.6876 17.6827 13.2172 17.6827 12.6744ZM18.7231 15.3206C17.709 15.3206 16.7656 16.1444 16.7656 17.2256C16.7656 18.2959 17.6973 19.1595 18.7231 19.1595C19.7717 19.1595 20.6226 18.2732 20.6226 17.2256C20.6231 16.7212 20.4233 16.2372 20.0671 15.88C19.711 15.5228 19.2276 15.3216 18.7231 15.3206ZM17.6719 17.2256C17.6719 16.6927 18.1603 16.2269 18.7231 16.2269C19.2633 16.2269 19.7164 16.671 19.7164 17.2256C19.7164 17.7929 19.2515 18.2533 18.7231 18.2533C18.1721 18.2533 17.6719 17.7693 17.6719 17.2256ZM13.9798 19.0308H5.0605C4.76688 19.0308 4.53125 18.8287 4.53125 18.5777C4.53125 18.3267 4.76688 18.1246 5.0605 18.1246H13.9708C14.2635 18.1246 14.5 18.3267 14.5 18.5777C14.5091 18.8206 14.2644 19.0308 13.9798 19.0308ZM13.9798 17.2183H5.0605C4.76688 17.2183 4.53125 17.0162 4.53125 16.7652C4.53125 16.5142 4.76688 16.3121 5.0605 16.3121H13.9708C14.2635 16.3121 14.5 16.5142 14.5 16.7652C14.5091 17.0162 14.2644 17.2183 13.9798 17.2183ZM24.7053 15.4058H22.4206C22.0491 15.4058 21.7509 15.7049 21.7509 16.0755V18.3611C21.7509 18.7327 22.05 19.0308 22.4206 19.0308H24.7062C25.0777 19.0308 25.3759 18.7318 25.3759 18.3611V16.0765C25.3761 15.9884 25.359 15.9012 25.3254 15.8199C25.2918 15.7385 25.2425 15.6646 25.1803 15.6024C25.118 15.5401 25.0441 15.4908 24.9628 15.4572C24.8814 15.4237 24.7942 15.4065 24.7062 15.4067M9.16762 12.6871H5.33237C4.88922 12.6871 4.53125 12.2965 4.53125 11.8125C4.53125 11.3286 4.88922 10.938 5.33237 10.938H9.16762C9.61078 10.938 9.96875 11.3286 9.96875 11.8125C9.96875 12.3065 9.61078 12.6871 9.16762 12.6871Z" fill="#919499"/>
<path d="M3.79719 7.25C2.18044 7.25 0.90625 8.58581 0.90625 10.1881V19.7182C0.90625 21.3204 2.18044 22.6562 3.79719 22.6562H16.8744C17.5495 22.6562 18.0643 22.1859 18.2265 21.6186C18.2569 21.509 18.3214 21.412 18.4107 21.3416C18.5 21.2711 18.6095 21.2311 18.7231 21.2271C18.9461 21.2271 19.1527 21.3793 19.2188 21.615L19.2197 21.6177C19.382 22.1859 19.8967 22.6562 20.5719 22.6562H25.2028C26.8196 22.6562 28.0938 21.3204 28.0938 19.7182V10.1881C28.0938 8.58581 26.8196 7.25 25.2028 7.25H20.5719C19.8967 7.25 19.382 7.72034 19.2197 8.28766C19.1894 8.39725 19.1248 8.49429 19.0355 8.5647C18.9462 8.6351 18.8368 8.67519 18.7231 8.67916C18.6095 8.6774 18.4996 8.63854 18.4101 8.56852C18.3206 8.4985 18.2564 8.40114 18.2274 8.29128L18.2265 8.28856C18.0643 7.72034 17.5495 7.25 16.8744 7.25H3.79719ZM2.71875 10.1881C2.71875 9.54553 3.22081 9.0625 3.79719 9.0625H16.5807C16.7577 9.48499 17.0554 9.84592 17.4364 10.1001C17.8175 10.3543 18.2651 10.4905 18.7231 10.4917C19.1808 10.4892 19.6276 10.3524 20.0083 10.0984C20.3889 9.84433 20.6867 9.48415 20.8646 9.0625H25.2028C25.7792 9.0625 26.2812 9.54553 26.2812 10.1881V19.7182C26.2812 20.3607 25.7792 20.8438 25.2028 20.8438H20.8655C20.6885 20.4213 20.3909 20.0603 20.0098 19.8061C19.6287 19.5519 19.1812 19.4157 18.7231 19.4146C18.2655 19.4171 17.8186 19.5538 17.438 19.8079C17.0573 20.0619 16.7596 20.4221 16.5817 20.8438H3.79719C3.22081 20.8438 2.71875 20.3607 2.71875 19.7182V10.1881Z" fill="#919499"/>
</svg>
