<svg width="18" height="18" viewBox="0 0 18 18" fill="none" xmlns="http://www.w3.org/2000/svg">
<path d="M17.5 2.5V1.25H15.625V0H14.375V1.25H13.75C13.0606 1.25 12.5 1.81125 12.5 2.5V3.75C12.5 4.43937 13.0606 5 13.75 5H16.25V6.25H12.5V7.5H14.375V8.75H15.625V7.5H16.25C16.9394 7.5 17.5 6.93937 17.5 6.25V5C17.5 4.31125 16.9394 3.75 16.25 3.75H13.75V2.5H17.5ZM13.75 11.25V12.5H15.3663L13.125 14.7413L11.6925 13.3081C11.5755 13.1911 11.4168 13.1252 11.2513 13.125H11.25C11.0845 13.1252 10.9258 13.1911 10.8088 13.3081L7.5 16.6163L8.38375 17.5L11.2506 14.6337L12.6831 16.0669C12.8003 16.184 12.9593 16.2499 13.125 16.2499C13.2907 16.2499 13.4497 16.184 13.5669 16.0669L16.25 13.3837V15H17.5V11.25H13.75ZM1.25 17.5H0V14.375C0 11.9625 1.9625 10 4.375 10H8.125C9.36812 10 10.5562 10.5312 11.3856 11.4581L10.4544 12.2919C10.1613 11.9641 9.80227 11.7019 9.40088 11.5223C8.99948 11.3428 8.56472 11.25 8.125 11.25H4.375C2.65188 11.25 1.25 12.6519 1.25 14.375V17.5ZM6.25 8.75C7.41032 8.75 8.52312 8.28906 9.34359 7.46859C10.1641 6.64812 10.625 5.53532 10.625 4.375C10.625 3.21468 10.1641 2.10188 9.34359 1.28141C8.52312 0.460936 7.41032 0 6.25 0C5.08968 0 3.97688 0.460936 3.15641 1.28141C2.33594 2.10188 1.875 3.21468 1.875 4.375C1.875 5.53532 2.33594 6.64812 3.15641 7.46859C3.97688 8.28906 5.08968 8.75 6.25 8.75ZM6.25 1.25C7.0788 1.25 7.87366 1.57924 8.45971 2.16529C9.04576 2.75134 9.375 3.5462 9.375 4.375C9.375 5.2038 9.04576 5.99866 8.45971 6.58471C7.87366 7.17076 7.0788 7.5 6.25 7.5C5.4212 7.5 4.62634 7.17076 4.04029 6.58471C3.45424 5.99866 3.125 5.2038 3.125 4.375C3.125 3.5462 3.45424 2.75134 4.04029 2.16529C4.62634 1.57924 5.4212 1.25 6.25 1.25Z" fill="#919499"/>
</svg>
