<svg width="19" height="24" viewBox="0 0 19 24" fill="none" xmlns="http://www.w3.org/2000/svg">
<path d="M9.5825 14.8438C5.2325 14.8438 0.375 18.3818 0.375 22.7294M9.5825 10.9059C10.6247 10.9084 11.6443 10.6017 12.5122 10.0246C13.38 9.44751 14.0573 8.62598 14.4581 7.66393C14.7581 6.94467 14.8946 6.16775 14.8577 5.38931C14.8209 4.61086 14.6116 3.85032 14.245 3.16263C13.8783 2.47494 13.3635 1.87726 12.7378 1.41277C12.112 0.948282 11.3909 0.628581 10.6265 0.476762C9.86237 0.324391 9.07395 0.343334 8.31802 0.532228C7.56209 0.721121 6.85743 1.07527 6.25479 1.56917C5.65215 2.06307 5.1665 2.68444 4.83282 3.38855C4.49914 4.09267 4.32572 4.862 4.32504 5.64118C4.32472 7.0361 4.87813 8.3741 5.86369 9.36125C6.84926 10.3484 8.18637 10.904 9.58129 10.9059M10.6736 19.2398L12.7133 21.2806C12.7849 21.3536 12.8704 21.4115 12.9647 21.4511C13.059 21.4907 13.1602 21.511 13.2625 21.511C13.3647 21.511 13.466 21.4907 13.5603 21.4511C13.6546 21.4115 13.74 21.3536 13.8117 21.2806L17.9236 17.1687" stroke="#919499" stroke-width="0.75" stroke-linecap="round" stroke-linejoin="round"/>
</svg>
