<svg width="24" height="24" viewBox="0 0 24 24" fill="none" xmlns="http://www.w3.org/2000/svg">
<path d="M7.54469 1.92114H15.6131C18.6868 1.92114 21.1842 4.41851 21.1842 7.4922V15.5606C21.1842 17.0382 20.5972 18.4552 19.5524 19.4999C18.5077 20.5447 17.0906 21.1317 15.6131 21.1317H7.54469C4.471 21.1317 1.97363 18.6343 1.97363 15.5606V7.4922C1.97363 6.01466 2.56058 4.59764 3.60536 3.55287C4.65013 2.50809 6.06715 1.92114 7.54469 1.92114ZM7.35258 3.8422C6.43549 3.8422 5.55596 4.20651 4.90748 4.85499C4.259 5.50347 3.89469 6.383 3.89469 7.30009V15.7527C3.89469 17.6642 5.44113 19.2106 7.35258 19.2106H15.8052C16.7223 19.2106 17.6018 18.8463 18.2503 18.1978C18.8988 17.5493 19.2631 16.6698 19.2631 15.7527V7.30009C19.2631 5.38864 17.7167 3.8422 15.8052 3.8422H7.35258ZM16.6217 5.28298C16.9401 5.28298 17.2455 5.40948 17.4707 5.63465C17.6958 5.85982 17.8223 6.16521 17.8223 6.48364C17.8223 6.80208 17.6958 7.10747 17.4707 7.33264C17.2455 7.5578 16.9401 7.6843 16.6217 7.6843C16.3032 7.6843 15.9978 7.5578 15.7727 7.33264C15.5475 7.10747 15.421 6.80208 15.421 6.48364C15.421 6.16521 15.5475 5.85982 15.7727 5.63465C15.9978 5.40948 16.3032 5.28298 16.6217 5.28298ZM11.5789 6.72377C12.8526 6.72377 14.0742 7.22976 14.9749 8.13043C15.8755 9.0311 16.3815 10.2527 16.3815 11.5264C16.3815 12.8001 15.8755 14.0217 14.9749 14.9224C14.0742 15.823 12.8526 16.329 11.5789 16.329C10.3052 16.329 9.08359 15.823 8.18292 14.9224C7.28225 14.0217 6.77626 12.8001 6.77626 11.5264C6.77626 10.2527 7.28225 9.0311 8.18292 8.13043C9.08359 7.22976 10.3052 6.72377 11.5789 6.72377ZM11.5789 8.64483C10.8147 8.64483 10.0817 8.94842 9.54131 9.48882C9.00091 10.0292 8.69732 10.7622 8.69732 11.5264C8.69732 12.2906 9.00091 13.0236 9.54131 13.564C10.0817 14.1044 10.8147 14.408 11.5789 14.408C12.3431 14.408 13.0761 14.1044 13.6165 13.564C14.1569 13.0236 14.4605 12.2906 14.4605 11.5264C14.4605 10.7622 14.1569 10.0292 13.6165 9.48882C13.0761 8.94842 12.3431 8.64483 11.5789 8.64483Z" fill="white"/>
</svg>
