<svg width="29" height="23" viewBox="0 0 29 23" fill="none" xmlns="http://www.w3.org/2000/svg">
<path d="M2.53377 20.5118C4.57297 22.551 7.85604 22.551 14.4222 22.551C20.9883 22.551 24.2728 22.551 26.312 20.5104C28.2022 18.6216 28.3414 15.6645 28.3512 10.0149H23.9496C22.6891 10.0149 22.0581 10.0149 21.5051 10.2698C20.9507 10.5247 20.5398 11.0038 19.7194 11.9608L18.8767 12.9442C18.0549 13.9011 17.6454 14.3802 17.091 14.6351C16.5366 14.89 15.907 14.89 14.6464 14.89H14.1993C12.9387 14.89 12.3078 14.89 11.7534 14.6351C11.199 14.3802 10.7895 13.9011 9.96908 12.9442L9.12498 11.9608C8.30456 11.0038 7.89504 10.5247 7.34067 10.2698C6.78629 10.0149 6.1567 10.0149 4.89473 10.0149H0.493164C0.502914 15.6631 0.642204 18.623 2.53377 20.5118ZM8.85057 0.612793C8.57351 0.612793 8.30779 0.722857 8.11188 0.918771C7.91596 1.11469 7.8059 1.3804 7.8059 1.65747C7.8059 1.93453 7.91596 2.20025 8.11188 2.39617C8.30779 2.59208 8.57351 2.70215 8.85057 2.70215H19.9938C20.2709 2.70215 20.5366 2.59208 20.7325 2.39617C20.9284 2.20025 21.0385 1.93453 21.0385 1.65747C21.0385 1.3804 20.9284 1.11469 20.7325 0.918771C20.5366 0.722857 20.2709 0.612793 19.9938 0.612793H8.85057ZM11.6364 5.48795C11.3593 5.48795 11.0936 5.59801 10.8977 5.79393C10.7018 5.98984 10.5917 6.25556 10.5917 6.53263C10.5917 6.80969 10.7018 7.07541 10.8977 7.27132C11.0936 7.46724 11.3593 7.5773 11.6364 7.5773H17.208C17.4851 7.5773 17.7508 7.46724 17.9467 7.27132C18.1426 7.07541 18.2527 6.80969 18.2527 6.53263C18.2527 6.25556 18.1426 5.98984 17.9467 5.79393C17.7508 5.59801 17.4851 5.48795 17.208 5.48795H11.6364Z" fill="#FFF200"/>
</svg>
