<svg width="16" height="21" viewBox="0 0 16 21" fill="none" xmlns="http://www.w3.org/2000/svg">
<path fill-rule="evenodd" clip-rule="evenodd" d="M8.24505 19.4691C9.39516 18.4255 10.4596 17.2912 11.428 16.0771C13.468 13.5141 14.709 10.9871 14.793 8.74012C14.8263 7.82692 14.6751 6.91638 14.3486 6.0629C14.0221 5.20943 13.5268 4.43052 12.8925 3.77271C12.2582 3.1149 11.4979 2.59169 10.6568 2.23432C9.81579 1.87696 8.91136 1.69278 7.99755 1.69278C7.08374 1.69278 6.1793 1.87696 5.33827 2.23432C4.49723 2.59169 3.73685 3.1149 3.10255 3.77271C2.46825 4.43052 1.97304 5.20943 1.64651 6.0629C1.31997 6.91638 1.16881 7.82692 1.20205 8.74012C1.28705 10.9871 2.52905 13.5141 4.56805 16.0771C5.53651 17.2912 6.60093 18.4255 7.75105 19.4691C7.86171 19.5691 7.94405 19.6418 7.99805 19.6871L8.24505 19.4691ZM7.26005 20.6341C7.26005 20.6341 -0.00195312 14.5181 -0.00195312 8.50012C-0.00195312 6.37839 0.840902 4.34356 2.34119 2.84327C3.84148 1.34298 5.87632 0.500122 7.99805 0.500122C10.1198 0.500122 12.1546 1.34298 13.6549 2.84327C15.1552 4.34356 15.998 6.37839 15.998 8.50012C15.998 14.5181 8.73605 20.6341 8.73605 20.6341C8.33205 21.0061 7.66705 21.0021 7.26005 20.6341ZM7.99805 11.3001C8.74065 11.3001 9.45284 11.0051 9.97795 10.48C10.503 9.95492 10.798 9.24273 10.798 8.50012C10.798 7.75752 10.503 7.04532 9.97795 6.52022C9.45284 5.99512 8.74065 5.70012 7.99805 5.70012C7.25544 5.70012 6.54325 5.99512 6.01815 6.52022C5.49305 7.04532 5.19805 7.75752 5.19805 8.50012C5.19805 9.24273 5.49305 9.95492 6.01815 10.48C6.54325 11.0051 7.25544 11.3001 7.99805 11.3001ZM7.99805 12.5001C6.93718 12.5001 5.91976 12.0787 5.16962 11.3285C4.41947 10.5784 3.99805 9.56099 3.99805 8.50012C3.99805 7.43926 4.41947 6.42184 5.16962 5.67169C5.91976 4.92155 6.93718 4.50012 7.99805 4.50012C9.05891 4.50012 10.0763 4.92155 10.8265 5.67169C11.5766 6.42184 11.998 7.43926 11.998 8.50012C11.998 9.56099 11.5766 10.5784 10.8265 11.3285C10.0763 12.0787 9.05891 12.5001 7.99805 12.5001Z" fill="#919499"/>
</svg>
