<svg width="14" height="10" viewBox="0 0 14 10" fill="none" xmlns="http://www.w3.org/2000/svg">
<path d="M0.769233 9.23077C0.551285 9.23077 0.368721 9.15692 0.221541 9.00923C0.0743617 8.86154 0.000515473 8.67897 2.65252e-06 8.46154C-0.000510168 8.2441 0.0733361 8.06154 0.221541 7.91385C0.369746 7.76615 0.55231 7.69231 0.769233 7.69231H13.0769C13.2949 7.69231 13.4777 7.76615 13.6254 7.91385C13.7731 8.06154 13.8467 8.2441 13.8462 8.46154C13.8456 8.67897 13.7718 8.86179 13.6246 9.01C13.4774 9.15821 13.2949 9.2318 13.0769 9.23077H0.769233ZM0.769233 5.38462C0.551285 5.38462 0.368721 5.31077 0.221541 5.16308C0.0743617 5.01538 0.000515473 4.83282 2.65252e-06 4.61538C-0.000510168 4.39795 0.0733361 4.21538 0.221541 4.06769C0.369746 3.92 0.55231 3.84615 0.769233 3.84615H13.0769C13.2949 3.84615 13.4777 3.92 13.6254 4.06769C13.7731 4.21538 13.8467 4.39795 13.8462 4.61538C13.8456 4.83282 13.7718 5.01564 13.6246 5.16385C13.4774 5.31205 13.2949 5.38564 13.0769 5.38462H0.769233ZM0.769233 1.53846C0.551285 1.53846 0.368721 1.46462 0.221541 1.31692C0.0743617 1.16923 0.000515473 0.986667 2.65252e-06 0.769231C-0.000510168 0.551795 0.0733361 0.369231 0.221541 0.221539C0.369746 0.0738462 0.55231 0 0.769233 0H13.0769C13.2949 0 13.4777 0.0738462 13.6254 0.221539C13.7731 0.369231 13.8467 0.551795 13.8462 0.769231C13.8456 0.986667 13.7718 1.16949 13.6246 1.31769C13.4774 1.4659 13.2949 1.53949 13.0769 1.53846H0.769233Z" fill="white"/>
</svg>
