<svg width="23" height="23" viewBox="0 0 23 23" fill="none" xmlns="http://www.w3.org/2000/svg">
<path d="M7.33245 17.9599H2.12412C1.94663 17.9598 1.7721 17.9144 1.61711 17.8279C1.46212 17.7414 1.33179 17.6168 1.2385 17.4658C1.14521 17.3148 1.09205 17.1425 1.08406 16.9651C1.07608 16.7878 1.11353 16.6114 1.19287 16.4526L3.16579 12.5047V9.62661C3.16579 7.41647 4.04376 5.29685 5.60656 3.73405C7.16937 2.17125 9.28898 1.29327 11.4991 1.29327C13.7093 1.29327 15.8289 2.17125 17.3917 3.73405C18.9545 5.29685 19.8325 7.41647 19.8325 9.62661V12.5058L21.8054 16.4526C21.8847 16.6114 21.9222 16.7878 21.9142 16.9651C21.9062 17.1425 21.853 17.3148 21.7597 17.4658C21.6664 17.6168 21.5361 17.7414 21.3811 17.8279C21.2261 17.9144 21.0516 17.9598 20.8741 17.9599H15.6658M7.33245 17.9599H15.6658M7.33245 17.9599C7.33245 19.065 7.77144 20.1248 8.55284 20.9062C9.33424 21.6876 10.394 22.1266 11.4991 22.1266C12.6042 22.1266 13.664 21.6876 14.4454 20.9062C15.2268 20.1248 15.6658 19.065 15.6658 17.9599" stroke="#919499" stroke-width="1.28625" stroke-linecap="round" stroke-linejoin="round"/>
</svg>
