<svg width="18" height="15" viewBox="0 0 18 15" fill="none" xmlns="http://www.w3.org/2000/svg">
<path d="M0.722656 14.1177L2.03516 11.8208C2.16693 11.5901 2.23633 11.3287 2.23633 11.063C2.23628 10.7975 2.16681 10.5367 2.03516 10.3062L0.750977 8.05615H0.75C0.653341 7.88705 0.602621 7.69526 0.602539 7.50049C0.602539 7.30555 0.653263 7.11309 0.75 6.94385L2.03613 4.69385C2.16779 4.46328 2.23727 4.20252 2.2373 3.93701C2.2373 3.7378 2.1981 3.54108 2.12305 3.35791L2.03613 3.1792L0.722656 0.882324L17.2949 0.882324L15.9824 3.1792C15.8506 3.40989 15.7812 3.67134 15.7812 3.93701C15.7813 4.2025 15.8508 4.46329 15.9824 4.69385L17.2676 6.94385C17.3643 7.11309 17.415 7.30555 17.415 7.50049C17.415 7.69526 17.3642 7.88705 17.2676 8.05615L15.9824 10.3062C15.8508 10.5367 15.7813 10.7975 15.7812 11.063C15.7812 11.3287 15.8506 11.5901 15.9824 11.8208L17.2939 14.1177L0.722656 14.1177Z" stroke="white" stroke-width="1.01806"/>
</svg>
