<svg width="50" height="50" viewBox="0 0 50 50" fill="none" xmlns="http://www.w3.org/2000/svg">
<mask id="path-1-inside-1_1774_20532" fill="white">
<path d="M47.8689 17.7146L43.5593 13.4051C43.2116 13.0621 42.748 12.8618 42.26 12.8437C41.7719 12.8256 41.2947 12.9911 40.9226 13.3074C40.3481 13.7964 39.6109 14.0518 38.857 14.0228C38.1031 13.9939 37.3876 13.6828 36.8523 13.1512C36.321 12.6159 36.0101 11.9006 35.9811 11.147C35.9522 10.3933 36.2073 9.65627 36.6961 9.08184C37.0124 8.70972 37.1779 8.23258 37.1598 7.74449C37.1417 7.25641 36.9414 6.79282 36.5984 6.44512L32.2849 2.13067C31.9204 1.76684 31.4264 1.5625 30.9114 1.5625C30.3964 1.5625 29.9024 1.76684 29.5379 2.13067L22.6678 8.99981C22.2436 9.42548 21.9237 9.94356 21.7332 10.5135C21.6961 10.6231 21.6342 10.7226 21.5524 10.8044C21.4706 10.8862 21.3711 10.9481 21.2615 10.9852C20.6914 11.1757 20.1732 11.4959 19.7478 11.9207L2.13067 29.5379C1.76684 29.9024 1.5625 30.3964 1.5625 30.9114C1.5625 31.4264 1.76684 31.9204 2.13067 32.285L6.44512 36.5945C6.79281 36.9375 7.25641 37.1378 7.74449 37.1559C8.23257 37.174 8.70971 37.0085 9.08183 36.6922C9.65496 36.1992 10.3932 35.9411 11.1486 35.9694C11.9041 35.9978 12.6209 36.3106 13.1554 36.8451C13.69 37.3797 14.0028 38.0965 14.0311 38.8519C14.0595 39.6074 13.8013 40.3456 13.3084 40.9187C12.992 41.2909 12.8266 41.768 12.8447 42.2561C12.8627 42.7442 13.063 43.2078 13.406 43.5555L17.7156 47.865C18.0801 48.2289 18.5741 48.4332 19.0891 48.4332C19.6042 48.4332 20.0982 48.2289 20.4627 47.865L38.0799 30.2478C38.5044 29.8227 38.8246 29.3049 39.0154 28.7352C39.0523 28.6252 39.1142 28.5253 39.1962 28.4433C39.2782 28.3613 39.3781 28.2994 39.4881 28.2625C40.0577 28.0719 40.5754 27.752 41.0008 27.3279L47.8699 20.4578C48.2324 20.0933 48.4358 19.6001 48.4356 19.086C48.4354 18.572 48.2317 18.0789 47.8689 17.7146ZM25.5672 14.8191C25.4221 14.9643 25.2498 15.0794 25.0602 15.1579C24.8706 15.2365 24.6674 15.2769 24.4622 15.2769C24.257 15.2769 24.0538 15.2365 23.8642 15.1579C23.6746 15.0794 23.5023 14.9643 23.3572 14.8191L22.2332 13.6951C21.9473 13.4006 21.7888 13.0054 21.7919 12.595C21.7949 12.1846 21.9594 11.7918 22.2497 11.5017C22.54 11.2115 22.9328 11.0472 23.3432 11.0443C23.7537 11.0414 24.1488 11.2001 24.4431 11.4861L25.5672 12.6092C25.7123 12.7543 25.8274 12.9265 25.906 13.1161C25.9845 13.3057 26.0249 13.5089 26.0249 13.7142C26.0249 13.9194 25.9845 14.1226 25.906 14.3122C25.8274 14.5018 25.7123 14.674 25.5672 14.8191ZM29.864 19.116C29.571 19.4088 29.1738 19.5733 28.7595 19.5733C28.3453 19.5733 27.9481 19.4088 27.6551 19.116L26.5808 18.0418C26.4357 17.8967 26.3206 17.7244 26.2421 17.5348C26.1636 17.3452 26.1231 17.142 26.1231 16.9368C26.1231 16.7316 26.1636 16.5284 26.2421 16.3388C26.3206 16.1492 26.4357 15.9769 26.5808 15.8318C26.8739 15.5388 27.2714 15.3741 27.6858 15.3741C27.891 15.3741 28.0942 15.4146 28.2838 15.4931C28.4734 15.5716 28.6457 15.6867 28.7908 15.8318L29.865 16.9061C30.0107 17.0511 30.1262 17.2235 30.2051 17.4134C30.284 17.6032 30.3247 17.8067 30.3247 18.0123C30.3248 18.2179 30.2844 18.4214 30.2056 18.6113C30.1269 18.8012 30.0115 18.9737 29.866 19.1189L29.864 19.116ZM34.1609 23.4129C34.0158 23.558 33.8436 23.6731 33.654 23.7517C33.4644 23.8302 33.2612 23.8707 33.0559 23.8707C32.8507 23.8707 32.6475 23.8302 32.4579 23.7517C32.2683 23.6731 32.096 23.558 31.951 23.4129L30.8767 22.3387C30.5908 22.0442 30.4323 21.649 30.4354 21.2386C30.4385 20.8281 30.603 20.4354 30.8932 20.1452C31.1835 19.8551 31.5764 19.6908 31.9868 19.6879C32.3972 19.685 32.7923 19.8437 33.0867 20.1297L34.1609 21.2039C34.3069 21.3488 34.4229 21.521 34.5023 21.7108C34.5816 21.9006 34.6226 22.1041 34.6231 22.3098C34.6235 22.5155 34.5834 22.7193 34.5049 22.9094C34.4264 23.0995 34.3112 23.2723 34.1658 23.4178L34.1609 23.4129ZM38.4998 27.7625C38.3547 27.9076 38.1824 28.0228 37.9928 28.1013C37.8032 28.1798 37.6 28.2203 37.3948 28.2203C37.1896 28.2203 36.9864 28.1798 36.7968 28.1013C36.6072 28.0228 36.4349 27.9076 36.2898 27.7625L35.1726 26.6395C35.0245 26.4948 34.9065 26.3221 34.8257 26.1315C34.7448 25.9408 34.7027 25.736 34.7017 25.5289C34.7007 25.3218 34.7409 25.1166 34.8199 24.9252C34.8989 24.7338 35.0152 24.56 35.162 24.4139C35.3088 24.2678 35.4832 24.1524 35.6749 24.0743C35.8667 23.9962 36.0721 23.957 36.2792 23.959C36.4863 23.961 36.6909 24.0041 36.8812 24.0859C37.0714 24.1677 37.2435 24.2865 37.3875 24.4354L38.5056 25.5574C38.6507 25.7026 38.7657 25.8749 38.8442 26.0645C38.9227 26.2542 38.963 26.4574 38.9629 26.6626C38.9628 26.8678 38.9223 27.071 38.8437 27.2606C38.7651 27.4501 38.6499 27.6223 38.5047 27.7674L38.4998 27.7625Z"/>
</mask>
<path d="M47.8689 17.7146L43.5593 13.4051C43.2116 13.0621 42.748 12.8618 42.26 12.8437C41.7719 12.8256 41.2947 12.9911 40.9226 13.3074C40.3481 13.7964 39.6109 14.0518 38.857 14.0228C38.1031 13.9939 37.3876 13.6828 36.8523 13.1512C36.321 12.6159 36.0101 11.9006 35.9811 11.147C35.9522 10.3933 36.2073 9.65627 36.6961 9.08184C37.0124 8.70972 37.1779 8.23258 37.1598 7.74449C37.1417 7.25641 36.9414 6.79282 36.5984 6.44512L32.2849 2.13067C31.9204 1.76684 31.4264 1.5625 30.9114 1.5625C30.3964 1.5625 29.9024 1.76684 29.5379 2.13067L22.6678 8.99981C22.2436 9.42548 21.9237 9.94356 21.7332 10.5135C21.6961 10.6231 21.6342 10.7226 21.5524 10.8044C21.4706 10.8862 21.3711 10.9481 21.2615 10.9852C20.6914 11.1757 20.1732 11.4959 19.7478 11.9207L2.13067 29.5379C1.76684 29.9024 1.5625 30.3964 1.5625 30.9114C1.5625 31.4264 1.76684 31.9204 2.13067 32.285L6.44512 36.5945C6.79281 36.9375 7.25641 37.1378 7.74449 37.1559C8.23257 37.174 8.70971 37.0085 9.08183 36.6922C9.65496 36.1992 10.3932 35.9411 11.1486 35.9694C11.9041 35.9978 12.6209 36.3106 13.1554 36.8451C13.69 37.3797 14.0028 38.0965 14.0311 38.8519C14.0595 39.6074 13.8013 40.3456 13.3084 40.9187C12.992 41.2909 12.8266 41.768 12.8447 42.2561C12.8627 42.7442 13.063 43.2078 13.406 43.5555L17.7156 47.865C18.0801 48.2289 18.5741 48.4332 19.0891 48.4332C19.6042 48.4332 20.0982 48.2289 20.4627 47.865L38.0799 30.2478C38.5044 29.8227 38.8246 29.3049 39.0154 28.7352C39.0523 28.6252 39.1142 28.5253 39.1962 28.4433C39.2782 28.3613 39.3781 28.2994 39.4881 28.2625C40.0577 28.0719 40.5754 27.752 41.0008 27.3279L47.8699 20.4578C48.2324 20.0933 48.4358 19.6001 48.4356 19.086C48.4354 18.572 48.2317 18.0789 47.8689 17.7146ZM25.5672 14.8191C25.4221 14.9643 25.2498 15.0794 25.0602 15.1579C24.8706 15.2365 24.6674 15.2769 24.4622 15.2769C24.257 15.2769 24.0538 15.2365 23.8642 15.1579C23.6746 15.0794 23.5023 14.9643 23.3572 14.8191L22.2332 13.6951C21.9473 13.4006 21.7888 13.0054 21.7919 12.595C21.7949 12.1846 21.9594 11.7918 22.2497 11.5017C22.54 11.2115 22.9328 11.0472 23.3432 11.0443C23.7537 11.0414 24.1488 11.2001 24.4431 11.4861L25.5672 12.6092C25.7123 12.7543 25.8274 12.9265 25.906 13.1161C25.9845 13.3057 26.0249 13.5089 26.0249 13.7142C26.0249 13.9194 25.9845 14.1226 25.906 14.3122C25.8274 14.5018 25.7123 14.674 25.5672 14.8191ZM29.864 19.116C29.571 19.4088 29.1738 19.5733 28.7595 19.5733C28.3453 19.5733 27.9481 19.4088 27.6551 19.116L26.5808 18.0418C26.4357 17.8967 26.3206 17.7244 26.2421 17.5348C26.1636 17.3452 26.1231 17.142 26.1231 16.9368C26.1231 16.7316 26.1636 16.5284 26.2421 16.3388C26.3206 16.1492 26.4357 15.9769 26.5808 15.8318C26.8739 15.5388 27.2714 15.3741 27.6858 15.3741C27.891 15.3741 28.0942 15.4146 28.2838 15.4931C28.4734 15.5716 28.6457 15.6867 28.7908 15.8318L29.865 16.9061C30.0107 17.0511 30.1262 17.2235 30.2051 17.4134C30.284 17.6032 30.3247 17.8067 30.3247 18.0123C30.3248 18.2179 30.2844 18.4214 30.2056 18.6113C30.1269 18.8012 30.0115 18.9737 29.866 19.1189L29.864 19.116ZM34.1609 23.4129C34.0158 23.558 33.8436 23.6731 33.654 23.7517C33.4644 23.8302 33.2612 23.8707 33.0559 23.8707C32.8507 23.8707 32.6475 23.8302 32.4579 23.7517C32.2683 23.6731 32.096 23.558 31.951 23.4129L30.8767 22.3387C30.5908 22.0442 30.4323 21.649 30.4354 21.2386C30.4385 20.8281 30.603 20.4354 30.8932 20.1452C31.1835 19.8551 31.5764 19.6908 31.9868 19.6879C32.3972 19.685 32.7923 19.8437 33.0867 20.1297L34.1609 21.2039C34.3069 21.3488 34.4229 21.521 34.5023 21.7108C34.5816 21.9006 34.6226 22.1041 34.6231 22.3098C34.6235 22.5155 34.5834 22.7193 34.5049 22.9094C34.4264 23.0995 34.3112 23.2723 34.1658 23.4178L34.1609 23.4129ZM38.4998 27.7625C38.3547 27.9076 38.1824 28.0228 37.9928 28.1013C37.8032 28.1798 37.6 28.2203 37.3948 28.2203C37.1896 28.2203 36.9864 28.1798 36.7968 28.1013C36.6072 28.0228 36.4349 27.9076 36.2898 27.7625L35.1726 26.6395C35.0245 26.4948 34.9065 26.3221 34.8257 26.1315C34.7448 25.9408 34.7027 25.736 34.7017 25.5289C34.7007 25.3218 34.7409 25.1166 34.8199 24.9252C34.8989 24.7338 35.0152 24.56 35.162 24.4139C35.3088 24.2678 35.4832 24.1524 35.6749 24.0743C35.8667 23.9962 36.0721 23.957 36.2792 23.959C36.4863 23.961 36.6909 24.0041 36.8812 24.0859C37.0714 24.1677 37.2435 24.2865 37.3875 24.4354L38.5056 25.5574C38.6507 25.7026 38.7657 25.8749 38.8442 26.0645C38.9227 26.2542 38.963 26.4574 38.9629 26.6626C38.9628 26.8678 38.9223 27.071 38.8437 27.2606C38.7651 27.4501 38.6499 27.6223 38.5047 27.7674L38.4998 27.7625Z" stroke="white" stroke-width="4" mask="url(#path-1-inside-1_1774_20532)"/>
</svg>
