<svg width="26" height="26" viewBox="0 0 26 26" fill="none" xmlns="http://www.w3.org/2000/svg">
<path d="M11.4042 19.3827C9.82681 19.3827 8.28483 18.915 6.97326 18.0386C5.6617 17.1622 4.63946 15.9166 4.03581 14.4593C3.43217 13.002 3.27423 11.3984 3.58196 9.85126C3.8897 8.30417 4.64929 6.88307 5.76468 5.76768C6.88008 4.65228 8.30118 3.89269 9.84827 3.58495C11.3954 3.27722 12.999 3.43516 14.4563 4.0388C15.9136 4.64245 17.1592 5.66469 18.0356 6.97625C18.912 8.28782 19.3797 9.8298 19.3797 11.4072C19.3797 12.4546 19.1734 13.4917 18.7726 14.4593C18.3718 15.4269 17.7843 16.3061 17.0437 17.0467C16.3032 17.7873 15.4239 18.3748 14.4563 18.7756C13.4887 19.1764 12.4516 19.3827 11.4042 19.3827ZM11.4042 5.03104C10.1473 5.03104 8.91865 5.40376 7.87358 6.10205C6.82851 6.80034 6.01397 7.79286 5.53298 8.95408C5.05199 10.1153 4.92614 11.3931 5.17134 12.6258C5.41655 13.8586 6.02181 14.9909 6.91057 15.8797C7.79933 16.7684 8.93167 17.3737 10.1644 17.6189C11.3972 17.8641 12.6749 17.7383 13.8362 17.2573C14.9974 16.7763 15.9899 15.9617 16.6882 14.9167C17.3865 13.8716 17.7592 12.6429 17.7592 11.386C17.7592 9.70058 17.0897 8.08416 15.8979 6.89237C14.7061 5.70058 13.0897 5.03104 11.4042 5.03104Z" fill="#919499"/>
<path d="M21.185 21.9777C21.0807 21.9782 20.9772 21.9578 20.8809 21.9178C20.7845 21.8778 20.697 21.8189 20.6237 21.7447L16.2493 17.3703C16.109 17.2198 16.0326 17.0206 16.0363 16.8148C16.0399 16.609 16.1233 16.4126 16.2688 16.2671C16.4143 16.1215 16.6107 16.0382 16.8165 16.0345C17.0223 16.0309 17.2215 16.1073 17.372 16.2476L21.7464 20.622C21.8952 20.7709 21.9787 20.9728 21.9787 21.1833C21.9787 21.3938 21.8952 21.5957 21.7464 21.7447C21.6731 21.8189 21.5856 21.8778 21.4892 21.9178C21.3928 21.9578 21.2894 21.9782 21.185 21.9777Z" fill="#919499"/>
</svg>
