<svg width="21" height="22" viewBox="0 0 21 22" fill="none" xmlns="http://www.w3.org/2000/svg">
<path fill-rule="evenodd" clip-rule="evenodd" d="M9.19647 6.28979C8.74322 7.46317 8.44834 9.12917 8.44834 11.0017C8.44834 12.8742 8.74322 14.5402 9.19734 15.7135C9.42484 16.3024 9.68034 16.7338 9.93059 17.0068C10.1808 17.2798 10.3733 17.3437 10.5002 17.3437C10.6271 17.3437 10.8205 17.2798 11.0707 17.0068C11.3201 16.7338 11.5756 16.3024 11.8031 15.7135C12.2581 14.5402 12.5521 12.8742 12.5521 11.0017C12.5521 9.12917 12.2572 7.46317 11.8031 6.28979C11.5756 5.70092 11.3201 5.26954 11.0698 4.99654C10.8196 4.72354 10.6271 4.65967 10.5002 4.65967C10.3733 4.65967 10.18 4.72354 9.93059 4.99654C9.68122 5.26954 9.42397 5.70092 9.19647 6.28979ZM8.96284 4.11104C9.36097 3.67442 9.87984 3.34717 10.5011 3.34717C11.1223 3.34717 11.6412 3.67442 12.0393 4.11017C12.4375 4.54504 12.7656 5.13829 13.0281 5.81642C13.554 7.17529 13.8655 9.00929 13.8655 11.0017C13.8655 12.994 13.554 14.828 13.0281 16.1869C12.7656 16.8642 12.4375 17.4583 12.0393 17.8932C11.6412 18.328 11.1223 18.6562 10.5011 18.6562C9.87984 18.6562 9.36097 18.328 8.96284 17.8932C8.56472 17.4583 8.23659 16.865 7.97409 16.1869C7.44822 14.828 7.13672 12.994 7.13672 11.0017C7.13672 9.00929 7.44822 7.17529 7.97409 5.81642C8.23659 5.13829 8.56472 4.54592 8.96284 4.11104Z" fill="#FFF200"/>
<path fill-rule="evenodd" clip-rule="evenodd" d="M10.5 4.65283C9.66693 4.65283 8.84201 4.81692 8.07235 5.13572C7.30269 5.45452 6.60336 5.9218 6.01429 6.51087C5.42522 7.09995 4.95794 7.79927 4.63914 8.56893C4.32034 9.33859 4.15625 10.1635 4.15625 10.9966C4.15625 11.8297 4.32034 12.6546 4.63914 13.4242C4.95794 14.1939 5.42522 14.8932 6.01429 15.4823C6.60336 16.0714 7.30269 16.5386 8.07235 16.8574C8.84201 17.1762 9.66693 17.3403 10.5 17.3403C12.1825 17.3403 13.796 16.672 14.9857 15.4823C16.1754 14.2926 16.8438 12.679 16.8438 10.9966C16.8438 9.31412 16.1754 7.70056 14.9857 6.51087C13.796 5.32119 12.1825 4.65283 10.5 4.65283ZM2.84375 10.9966C2.84375 8.96602 3.65039 7.01862 5.08621 5.5828C6.52204 4.14697 8.46944 3.34033 10.5 3.34033C12.5306 3.34033 14.478 4.14697 15.9138 5.5828C17.3496 7.01862 18.1562 8.96602 18.1562 10.9966C18.1562 13.0271 17.3496 14.9745 15.9138 16.4104C14.478 17.8462 12.5306 18.6528 10.5 18.6528C8.46944 18.6528 6.52204 17.8462 5.08621 16.4104C3.65039 14.9745 2.84375 13.0271 2.84375 10.9966Z" fill="#FFF200"/>
<path fill-rule="evenodd" clip-rule="evenodd" d="M2.84375 10.9912C2.84375 10.8172 2.91289 10.6502 3.03596 10.5272C3.15903 10.4041 3.32595 10.335 3.5 10.335L17.5 10.3455C17.674 10.3455 17.841 10.4146 17.964 10.5377C18.0871 10.6607 18.1562 10.8277 18.1562 11.0017C18.1562 11.1758 18.0871 11.3427 17.964 11.4658C17.841 11.5888 17.674 11.658 17.5 11.658L3.5 11.6483C3.32595 11.6483 3.15903 11.5792 3.03596 11.4561C2.91289 11.3331 2.84375 11.1661 2.84375 10.9921" fill="#FFF200"/>
</svg>
