<svg width="15" height="18" viewBox="0 0 15 18" fill="none" xmlns="http://www.w3.org/2000/svg">
<path d="M7.69106 0.702148C3.89214 0.702148 0.803711 3.79058 0.803711 7.5895C0.803711 11.2652 3.6964 14.2811 7.32857 14.4696V17.0795L8.36529 16.5793C12.0845 14.7886 14.5784 11.1782 14.5784 7.5895C14.5784 3.79058 11.49 0.702148 7.69106 0.702148ZM8.77854 14.6943V13.0269H7.69106C4.68963 13.0269 2.25368 10.5909 2.25368 7.5895C2.25368 4.58806 4.68963 2.15212 7.69106 2.15212C10.6925 2.15212 13.1284 4.58806 13.1284 7.5895C13.1284 10.2937 11.4175 13.0341 8.77854 14.6943ZM6.96608 10.4894H8.41604V11.9394H6.96608V10.4894ZM7.69106 2.8771C6.08884 2.8771 4.79112 4.17482 4.79112 5.77704H6.24109C6.24109 4.97955 6.89358 4.32707 7.69106 4.32707C8.48854 4.32707 9.14103 4.97955 9.14103 5.77704C9.14103 7.227 6.96608 7.04576 6.96608 9.40196H8.41604C8.41604 7.77074 10.591 7.5895 10.591 5.77704C10.591 4.17482 9.29327 2.8771 7.69106 2.8771Z" fill="white"/>
</svg>
