<svg width="25" height="26" viewBox="0 0 25 26" fill="none" xmlns="http://www.w3.org/2000/svg">
<path opacity="0.5" d="M8.78688 5.46313C8.64531 6.30956 8.64531 7.4331 8.64531 8.97735V17.0098C8.64531 18.5541 8.64531 19.6776 8.78688 20.5241H8.64531C6.27873 20.5241 5.09495 20.5241 4.35997 19.7891C3.625 19.0531 3.625 17.8703 3.625 15.5037V10.4834C3.625 8.11687 3.625 6.93308 4.35997 6.19811C5.09495 5.46313 6.27873 5.46313 8.64531 5.46313H8.78688Z" fill="#6F4FF2"/>
<path fill-rule="evenodd" clip-rule="evenodd" d="M9.52515 3.83569C8.64258 4.71726 8.64258 6.13801 8.64258 8.97749V17.01C8.64258 19.8495 8.64258 21.2702 9.52515 22.1518C10.4067 23.0344 11.8275 23.0344 14.6669 23.0344H15.671C18.5105 23.0344 19.9312 23.0344 20.8128 22.1518C21.6954 21.2702 21.6954 19.8495 21.6954 17.01V8.97749C21.6954 6.13801 21.6954 4.71726 20.8128 3.83569C19.9312 2.95312 18.5105 2.95313 15.671 2.95313H14.6669C11.8275 2.95313 10.4067 2.95312 9.52515 3.83569ZM15.7011 8.44434C15.5599 8.30332 15.3685 8.22411 15.169 8.22411C14.9694 8.22411 14.778 8.30332 14.6368 8.44434L12.1267 10.9545C12.0547 11.0239 11.9973 11.107 11.9578 11.1988C11.9183 11.2907 11.8975 11.3895 11.8966 11.4895C11.8956 11.5895 11.9146 11.6887 11.9525 11.7812C11.9903 11.8738 12.0462 11.9579 12.1168 12.0286C12.1875 12.0994 12.2716 12.1553 12.3641 12.1932C12.4566 12.2311 12.5558 12.2502 12.6558 12.2494C12.7557 12.2486 12.8546 12.2279 12.9465 12.1884C13.0384 12.149 13.1215 12.0917 13.191 12.0198L14.4159 10.7948V17.01C14.4159 17.2097 14.4953 17.4012 14.6365 17.5425C14.7777 17.6837 14.9693 17.763 15.169 17.763C15.3687 17.763 15.5602 17.6837 15.7015 17.5425C15.8427 17.4012 15.922 17.2097 15.922 17.01V10.7948L17.147 12.0198C17.2159 12.0938 17.2991 12.1531 17.3914 12.1943C17.4838 12.2354 17.5835 12.2576 17.6846 12.2594C17.7857 12.2611 17.8862 12.2425 17.9799 12.2047C18.0737 12.1668 18.1589 12.1104 18.2304 12.0389C18.3019 11.9674 18.3583 11.8822 18.3962 11.7885C18.434 11.6947 18.4526 11.5943 18.4508 11.4931C18.4491 11.392 18.4269 11.2923 18.3858 11.1999C18.3446 11.1076 18.2853 11.0244 18.2113 10.9555L15.7011 8.44434Z" fill="#6F4FF2"/>
</svg>
