<svg width="18" height="15" viewBox="0 0 18 15" fill="none" xmlns="http://www.w3.org/2000/svg">
<path d="M0.628906 13.7441L1.94141 11.4473C2.07318 11.2166 2.14258 10.9551 2.14258 10.6895C2.14253 10.4239 2.07306 10.1632 1.94141 9.93262L0.657227 7.68262H0.65625C0.559591 7.51351 0.508871 7.32173 0.508789 7.12695C0.508789 6.93202 0.559513 6.73955 0.65625 6.57031L1.94238 4.32031C2.07404 4.08974 2.14352 3.82899 2.14355 3.56348C2.14355 3.36426 2.10435 3.16754 2.0293 2.98438L1.94238 2.80566L0.628906 0.508789L17.2012 0.508789L15.8887 2.80566C15.7569 3.03635 15.6875 3.2978 15.6875 3.56348C15.6875 3.82897 15.757 4.08976 15.8887 4.32031L17.1738 6.57031C17.2706 6.73955 17.3213 6.93202 17.3213 7.12695C17.3212 7.32173 17.2705 7.51351 17.1738 7.68262L15.8887 9.93262C15.757 10.1632 15.6875 10.424 15.6875 10.6895C15.6875 10.9551 15.7569 11.2166 15.8887 11.4473L17.2002 13.7441L0.628906 13.7441Z" stroke="white" stroke-width="1.01806"/>
<path d="M5.86133 9.1626V5.09034M11.9697 9.1626V5.09034M8.91552 9.1626V5.09034" stroke="white" stroke-width="2.03613" stroke-linecap="round"/>
</svg>
