<svg width="16" height="19" viewBox="0 0 16 19" fill="none" xmlns="http://www.w3.org/2000/svg">
<path d="M13.0817 18.2071C12.0827 19.1755 10.9919 19.0226 9.9419 18.5639C8.83073 18.095 7.81131 18.0746 6.63897 18.5639C5.17101 19.1959 4.39625 19.0124 3.51955 18.2071C-1.45522 13.0794 -0.721238 5.27066 4.92635 4.98522C6.30257 5.05658 7.26082 5.73959 8.06616 5.80076C9.26908 5.5561 10.421 4.8527 11.7055 4.94445C13.2448 5.06678 14.407 5.67843 15.1715 6.7794C11.9909 8.68572 12.7453 12.8755 15.6608 14.0479C15.0798 15.577 14.3254 17.0959 13.0715 18.2173L13.0817 18.2071ZM7.96422 4.92406C7.81131 2.65075 9.65646 0.775018 11.7769 0.591522C12.0725 3.22163 9.39141 5.17891 7.96422 4.92406Z" fill="white"/>
</svg>
