<svg width="14" height="13" viewBox="0 0 14 13" fill="none" xmlns="http://www.w3.org/2000/svg">
<path d="M2.6565 1.06022C2.69213 0.770329 2.84136 0.506432 3.07142 0.326495C3.30149 0.146559 3.59357 0.0652989 3.8835 0.100564L12.6508 1.17247C12.9406 1.20809 13.2045 1.35733 13.3845 1.58739C13.5644 1.81745 13.6457 2.10953 13.6104 2.39947L12.5385 11.1667C12.4941 11.4489 12.3417 11.7029 12.1137 11.875C11.8856 12.0471 11.5996 12.1239 11.316 12.0892C11.0325 12.0546 10.7734 11.9111 10.5935 11.6891C10.4137 11.4672 10.327 11.184 10.3519 10.8994L11.1009 4.77261L2.48877 11.5083C2.25852 11.6884 1.96616 11.7696 1.67601 11.7342C1.38586 11.6987 1.12169 11.5494 0.941605 11.3191C0.761522 11.0889 0.680282 10.7965 0.715757 10.5064C0.751231 10.2162 0.900513 9.95207 1.13076 9.77199L9.74292 3.03629L3.61616 2.28722C3.32626 2.2516 3.06237 2.10236 2.88243 1.8723C2.7025 1.64223 2.62123 1.35016 2.6565 1.06022Z" fill="#919499"/>
</svg>
