<svg width="21" height="21" viewBox="0 0 21 21" fill="none" xmlns="http://www.w3.org/2000/svg">
<path d="M10.1894 17.8301C14.4096 17.8301 17.8309 14.4089 17.8309 10.1886C17.8309 5.96834 14.4096 2.54712 10.1894 2.54712C5.96907 2.54712 2.54785 5.96834 2.54785 10.1886C2.54785 14.4089 5.96907 17.8301 10.1894 17.8301Z" stroke="#919499" stroke-width="1.69811" stroke-linecap="round" stroke-linejoin="round"/>
<path d="M9.60135 8.26881L12.7369 7.64136L12.1095 10.7769C12.0438 11.1056 11.8823 11.4074 11.6454 11.6445C11.4085 11.8815 11.1067 12.0432 10.7781 12.1091L7.64258 12.7357L8.27003 9.60013C8.33586 9.27164 8.49739 8.96996 8.73429 8.73307C8.97118 8.49617 9.27286 8.33464 9.60135 8.26881Z" stroke="#919499" stroke-width="1.69811" stroke-linecap="round" stroke-linejoin="round"/>
</svg>
