<svg width="17" height="13" viewBox="0 0 17 13" fill="none" xmlns="http://www.w3.org/2000/svg">
<path d="M14.254 1.21957C13.201 0.72874 12.061 0.37249 10.8735 0.166656C10.8527 0.166954 10.8327 0.175491 10.8181 0.190407C10.6756 0.451657 10.5094 0.792073 10.3985 1.05332C9.139 0.863442 7.8581 0.863442 6.59855 1.05332C6.48771 0.784156 6.32146 0.451657 6.17105 0.190407C6.16313 0.174573 6.13938 0.166656 6.11563 0.166656C4.92813 0.37249 3.79605 0.72874 2.73521 1.21957C2.7273 1.21957 2.71938 1.22749 2.71146 1.23541C0.55813 4.45749 -0.0356201 7.59249 0.257297 10.6958C0.257297 10.7117 0.265213 10.7275 0.281047 10.7354C1.70605 11.7804 3.07563 12.4137 4.42938 12.8333C4.45313 12.8412 4.47688 12.8333 4.4848 12.8175C4.80146 12.3821 5.08646 11.9229 5.33188 11.44C5.34771 11.4083 5.33188 11.3767 5.30021 11.3687C4.84896 11.1946 4.42146 10.9887 4.00188 10.7512C3.97021 10.7354 3.97021 10.6879 3.99396 10.6642C4.08105 10.6008 4.16813 10.5296 4.25521 10.4662C4.27105 10.4504 4.2948 10.4504 4.31063 10.4583C7.03396 11.7012 9.97105 11.7012 12.6627 10.4583C12.6785 10.4504 12.7023 10.4504 12.7181 10.4662C12.8052 10.5375 12.8923 10.6008 12.9794 10.6721C13.011 10.6958 13.011 10.7433 12.9715 10.7592C12.5598 11.0046 12.1244 11.2025 11.6731 11.3767C11.6415 11.3846 11.6335 11.4242 11.6415 11.4479C11.8948 11.9308 12.1798 12.39 12.4885 12.8254C12.5123 12.8333 12.536 12.8412 12.5598 12.8333C13.9215 12.4137 15.291 11.7804 16.716 10.7354C16.7319 10.7275 16.7398 10.7117 16.7398 10.6958C17.0881 7.10957 16.1619 3.99832 14.2856 1.23541C14.2777 1.22749 14.2698 1.21957 14.254 1.21957ZM5.74355 8.80374C4.92813 8.80374 4.2473 8.05166 4.2473 7.12541C4.2473 6.19916 4.9123 5.44707 5.74355 5.44707C6.58271 5.44707 7.24771 6.20707 7.2398 7.12541C7.2398 8.05166 6.5748 8.80374 5.74355 8.80374ZM11.2615 8.80374C10.446 8.80374 9.76521 8.05166 9.76521 7.12541C9.76521 6.19916 10.4302 5.44707 11.2615 5.44707C12.1006 5.44707 12.7656 6.20707 12.7577 7.12541C12.7577 8.05166 12.1006 8.80374 11.2615 8.80374Z" fill="#919499"/>
</svg>
