<svg width="23" height="23" viewBox="0 0 23 23" fill="none" xmlns="http://www.w3.org/2000/svg">
<path d="M20.7135 9.96454H19.9725V9.92637H11.6928V13.6062H16.892C16.1335 15.7484 14.0953 17.2861 11.6928 17.2861C8.64451 17.2861 6.17302 14.8146 6.17302 11.7663C6.17302 8.71799 8.64451 6.24651 11.6928 6.24651C13.0999 6.24651 14.38 6.77733 15.3547 7.64439L17.9568 5.04227C16.3138 3.51099 14.116 2.56665 11.6928 2.56665C6.6123 2.56665 2.49316 6.68579 2.49316 11.7663C2.49316 16.8468 6.6123 20.9659 11.6928 20.9659C16.7733 20.9659 20.8925 16.8468 20.8925 11.7663C20.8925 11.1495 20.829 10.5473 20.7135 9.96454Z" fill="#FFC107"/>
<path d="M3.55371 7.48432L6.57625 9.70097C7.3941 7.67613 9.37479 6.24651 11.6926 6.24651C13.0997 6.24651 14.3799 6.77733 15.3546 7.64439L17.9567 5.04227C16.3136 3.51099 14.1158 2.56665 11.6926 2.56665C8.15905 2.56665 5.09465 4.56159 3.55371 7.48432Z" fill="#FF3D00"/>
<path d="M11.6939 20.9659C14.0702 20.9659 16.2293 20.0565 17.8618 18.5777L15.0145 16.1683C14.06 16.8946 12.8933 17.2874 11.6939 17.2861C9.30106 17.2861 7.26932 15.7603 6.50391 13.631L3.50391 15.9425C5.02645 18.9218 8.11845 20.9659 11.6939 20.9659Z" fill="#4CAF50"/>
<path d="M20.715 9.96451H19.974V9.92633H11.6943V13.6062H16.8935C16.5307 14.6257 15.8771 15.5166 15.0136 16.1687L15.0149 16.1678L17.8622 18.5772C17.6608 18.7603 20.894 16.3661 20.894 11.7663C20.894 11.1494 20.8305 10.5473 20.715 9.96451Z" fill="#1976D2"/>
</svg>
