<svg width="26" height="26" viewBox="0 0 26 26" fill="none" xmlns="http://www.w3.org/2000/svg">
<path opacity="0.3" d="M12.458 3.25C7.97301 3.25 4.33301 6.89 4.33301 11.375C4.33301 15.86 7.97301 19.5 12.458 19.5H14.083V21.9917C18.0263 19.5 20.583 15.405 20.583 11.375C20.583 6.89 16.943 3.25 12.458 3.25ZM13.5413 17.875H11.3747V15.7083H13.5413V17.875ZM13.5413 14.0833H11.3747C11.3747 10.5625 14.6247 10.8333 14.6247 8.66667C14.6247 7.475 13.6497 6.5 12.458 6.5C11.2663 6.5 10.2913 7.475 10.2913 8.66667H8.12467C8.12467 6.2725 10.0638 4.33333 12.458 4.33333C14.8522 4.33333 16.7913 6.2725 16.7913 8.66667C16.7913 11.375 13.5413 11.6458 13.5413 14.0833Z" fill="white"/>
<path d="M12.4587 1.08337C6.78199 1.08337 2.16699 5.69837 2.16699 11.375C2.16699 16.8675 6.48949 21.3742 11.917 21.6559V25.5559L13.4662 24.8084C19.0237 22.1325 22.7503 16.7375 22.7503 11.375C22.7503 5.69837 18.1353 1.08337 12.4587 1.08337ZM14.0837 21.9917V19.5H12.4587C7.97366 19.5 4.33366 15.86 4.33366 11.375C4.33366 6.89004 7.97366 3.25004 12.4587 3.25004C16.9437 3.25004 20.5837 6.89004 20.5837 11.375C20.5837 15.4159 18.027 19.5109 14.0837 21.9917ZM11.3753 15.7084H13.542V17.875H11.3753V15.7084ZM12.4587 4.33337C10.0645 4.33337 8.12533 6.27254 8.12533 8.66671H10.292C10.292 7.47504 11.267 6.50004 12.4587 6.50004C13.6503 6.50004 14.6253 7.47504 14.6253 8.66671C14.6253 10.8334 11.3753 10.5625 11.3753 14.0834H13.542C13.542 11.6459 16.792 11.375 16.792 8.66671C16.792 6.27254 14.8528 4.33337 12.4587 4.33337Z" fill="white"/>
</svg>
