<svg width="34" height="33" viewBox="0 0 34 33" fill="none" xmlns="http://www.w3.org/2000/svg">
<circle cx="17" cy="16.5" r="16.25" stroke="white" stroke-width="0.5"/>
<path d="M21.2496 16.5C21.8573 16.4999 22.4524 16.6735 22.9648 17.0004C23.4771 17.3273 23.8853 17.7939 24.1412 18.3451C24.3972 18.8964 24.4902 19.5093 24.4093 20.1116C24.3285 20.7139 24.0771 21.2806 23.6848 21.7448C23.2926 22.209 22.7758 22.5514 22.1954 22.7316C21.615 22.9118 20.9952 22.9224 20.409 22.762C19.8228 22.6016 19.2947 22.277 18.8868 21.8264C18.479 21.3758 18.2085 20.818 18.1073 20.2188H15.8919C15.7587 21.0068 15.3343 21.7161 14.7029 22.206C14.0714 22.6959 13.2789 22.9307 12.4825 22.8638C11.686 22.797 10.9438 22.4334 10.4028 21.8451C9.86177 21.2568 9.56152 20.4867 9.56152 19.6875C9.56152 18.8883 9.86177 18.1182 10.4028 17.5299C10.9438 16.9416 11.686 16.578 12.4825 16.5112C13.2789 16.4443 14.0714 16.6791 14.7029 17.169C15.3343 17.6589 15.7587 18.3682 15.8919 19.1562H18.1073C18.2328 18.4136 18.6172 17.7394 19.1924 17.2532C19.7676 16.767 20.4964 16.5001 21.2496 16.5ZM12.7496 17.5625C12.186 17.5625 11.6455 17.7864 11.247 18.1849C10.8485 18.5834 10.6246 19.1239 10.6246 19.6875C10.6246 20.2511 10.8485 20.7916 11.247 21.1901C11.6455 21.5886 12.186 21.8125 12.7496 21.8125C13.3132 21.8125 13.8537 21.5886 14.2522 21.1901C14.6507 20.7916 14.8746 20.2511 14.8746 19.6875C14.8746 19.1239 14.6507 18.5834 14.2522 18.1849C13.8537 17.7864 13.3132 17.5625 12.7496 17.5625ZM21.2496 17.5625C20.686 17.5625 20.1455 17.7864 19.747 18.1849C19.3485 18.5834 19.1246 19.1239 19.1246 19.6875C19.1246 20.2511 19.3485 20.7916 19.747 21.1901C20.1455 21.5886 20.686 21.8125 21.2496 21.8125C21.8132 21.8125 22.3537 21.5886 22.7522 21.1901C23.1507 20.7916 23.3746 20.2511 23.3746 19.6875C23.3746 19.1239 23.1507 18.5834 22.7522 18.1849C22.3537 17.7864 21.8132 17.5625 21.2496 17.5625ZM19.4731 9.59375C19.9468 9.59377 20.4098 9.73452 20.8034 9.99812C21.1969 10.2617 21.5033 10.6363 21.6836 11.0743L22.9767 14.214C23.0061 14.2863 23.0307 14.3598 23.0505 14.4345C23.3061 14.486 23.5175 14.5312 23.6779 14.5684C23.7948 14.596 23.8846 14.6178 23.9473 14.6337L24.0185 14.6518L24.0376 14.6571L24.0429 14.6587L24.045 14.6592L24.0971 14.6762C24.2201 14.7234 24.3211 14.8145 24.3807 14.932C24.4402 15.0494 24.4541 15.1848 24.4194 15.3119C24.3848 15.4389 24.3043 15.5486 24.1934 15.6196C24.0825 15.6906 23.9491 15.7179 23.8193 15.6962L23.7661 15.6845L23.7624 15.6835L23.7481 15.6797L23.6864 15.6638C23.4691 15.6103 23.2509 15.5606 23.0319 15.5145L22.4805 15.4056C20.6723 15.0746 18.8379 14.9075 16.9996 14.9062C14.9686 14.9062 13.2171 15.1172 12.0048 15.3196L11.5187 15.4056C11.1982 15.4647 10.879 15.5307 10.5614 15.6038C10.4783 15.623 10.3954 15.643 10.3128 15.6638L10.2511 15.6797L10.2363 15.6835L10.2336 15.6845C10.0976 15.7216 9.95252 15.7031 9.83017 15.6332C9.70783 15.5632 9.61828 15.4476 9.58122 15.3116C9.54417 15.1756 9.56264 15.0305 9.63258 14.9082C9.70252 14.7858 9.81819 14.6963 9.95416 14.6592H9.95575L9.96107 14.6571L9.98072 14.6518L10.0519 14.6337C10.1139 14.6174 10.2037 14.5956 10.3213 14.5684C10.4817 14.5312 10.6931 14.486 10.9481 14.4345C10.9675 14.3593 10.9924 14.2856 11.0225 14.214L12.3156 11.0743L12.3905 10.9097C12.5896 10.514 12.8947 10.1814 13.2718 9.94909C13.6489 9.71674 14.0832 9.59371 14.5261 9.59375H19.4731Z" fill="white"/>
</svg>
