<svg width="15" height="15" viewBox="0 0 15 15" fill="none" xmlns="http://www.w3.org/2000/svg">
<path d="M4.58126 0.378296H10.5614C12.8395 0.378296 14.6905 2.22994 14.6905 4.50889V10.4911C14.6905 11.5866 14.2554 12.6373 13.4811 13.4119C12.7067 14.1865 11.6565 14.6217 10.5614 14.6217H4.58126C2.30313 14.6217 0.452148 12.7701 0.452148 10.4911V4.50889C0.452148 3.41339 0.887179 2.36276 1.66154 1.58812C2.4359 0.813483 3.48615 0.378296 4.58126 0.378296ZM4.43888 1.80264C3.75916 1.80264 3.10727 2.07276 2.62664 2.55356C2.146 3.03437 1.87598 3.68649 1.87598 4.36646V10.6336C1.87598 12.0508 3.02217 13.1974 4.43888 13.1974H10.7037C11.3835 13.1974 12.0353 12.9273 12.516 12.4465C12.9966 11.9657 13.2666 11.3135 13.2666 10.6336V4.36646C13.2666 2.94924 12.1205 1.80264 10.7037 1.80264H4.43888ZM11.3089 2.8709C11.5449 2.8709 11.7712 2.96469 11.9381 3.13163C12.105 3.29858 12.1988 3.52501 12.1988 3.76111C12.1988 3.99721 12.105 4.22364 11.9381 4.39059C11.7712 4.55754 11.5449 4.65133 11.3089 4.65133C11.0729 4.65133 10.8465 4.55754 10.6796 4.39059C10.5127 4.22364 10.419 3.99721 10.419 3.76111C10.419 3.52501 10.5127 3.29858 10.6796 3.13163C10.8465 2.96469 11.0729 2.8709 11.3089 2.8709ZM7.57131 3.93915C8.51537 3.93915 9.42076 4.31432 10.0883 4.98211C10.7559 5.6499 11.1309 6.55562 11.1309 7.50001C11.1309 8.44441 10.7559 9.35013 10.0883 10.0179C9.42076 10.6857 8.51537 11.0609 7.57131 11.0609C6.62725 11.0609 5.72186 10.6857 5.05431 10.0179C4.38675 9.35013 4.01173 8.44441 4.01173 7.50001C4.01173 6.55562 4.38675 5.6499 5.05431 4.98211C5.72186 4.31432 6.62725 3.93915 7.57131 3.93915ZM7.57131 5.3635C7.00487 5.3635 6.46164 5.58859 6.06111 5.98927C5.66058 6.38994 5.43556 6.93337 5.43556 7.50001C5.43556 8.06665 5.66058 8.61008 6.06111 9.01076C6.46164 9.41143 7.00487 9.63653 7.57131 9.63653C8.13774 9.63653 8.68098 9.41143 9.08151 9.01076C9.48204 8.61008 9.70706 8.06665 9.70706 7.50001C9.70706 6.93337 9.48204 6.38994 9.08151 5.98927C8.68098 5.58859 8.13774 5.3635 7.57131 5.3635Z" fill="#919499"/>
</svg>
