<svg width="35" height="35" viewBox="0 0 35 35" fill="none" xmlns="http://www.w3.org/2000/svg">
<path opacity="0.5" d="M3.49316 17.6224C3.49316 11.0562 3.49316 7.77317 5.53237 5.73257C7.57437 3.69336 10.856 3.69336 17.4222 3.69336C23.9883 3.69336 27.2714 3.69336 29.3106 5.73257C31.3512 7.77456 31.3512 11.0562 31.3512 17.6224C31.3512 24.1885 31.3512 27.4716 29.3106 29.5108C27.2728 31.5514 23.9883 31.5514 17.4222 31.5514C10.856 31.5514 7.57297 31.5514 5.53237 29.5108C3.49316 27.473 3.49316 24.1885 3.49316 17.6224Z" fill="#FFF200"/>
<path d="M5.53377 29.5118C7.57297 31.551 10.856 31.551 17.4222 31.551C23.9883 31.551 27.2728 31.551 29.312 29.5104C31.2022 27.6216 31.3414 24.6645 31.3512 19.0149H26.9496C25.6891 19.0149 25.0581 19.0149 24.5051 19.2698C23.9507 19.5247 23.5398 20.0038 22.7194 20.9608L21.8767 21.9442C21.0549 22.9011 20.6454 23.3802 20.091 23.6351C19.5366 23.89 18.907 23.89 17.6464 23.89H17.1993C15.9387 23.89 15.3078 23.89 14.7534 23.6351C14.199 23.3802 13.7895 22.9011 12.9691 21.9442L12.125 20.9608C11.3046 20.0038 10.895 19.5247 10.3407 19.2698C9.78629 19.0149 9.1567 19.0149 7.89473 19.0149H3.49316C3.50291 24.6631 3.6422 27.623 5.53377 29.5118ZM11.8506 9.61279C11.5735 9.61279 11.3078 9.72286 11.1119 9.91877C10.916 10.1147 10.8059 10.3804 10.8059 10.6575C10.8059 10.9345 10.916 11.2003 11.1119 11.3962C11.3078 11.5921 11.5735 11.7021 11.8506 11.7021H22.9938C23.2709 11.7021 23.5366 11.5921 23.7325 11.3962C23.9284 11.2003 24.0385 10.9345 24.0385 10.6575C24.0385 10.3804 23.9284 10.1147 23.7325 9.91877C23.5366 9.72286 23.2709 9.61279 22.9938 9.61279H11.8506ZM14.6364 14.4879C14.3593 14.4879 14.0936 14.598 13.8977 14.7939C13.7018 14.9898 13.5917 15.2556 13.5917 15.5326C13.5917 15.8097 13.7018 16.0754 13.8977 16.2713C14.0936 16.4672 14.3593 16.5773 14.6364 16.5773H20.208C20.4851 16.5773 20.7508 16.4672 20.9467 16.2713C21.1426 16.0754 21.2527 15.8097 21.2527 15.5326C21.2527 15.2556 21.1426 14.9898 20.9467 14.7939C20.7508 14.598 20.4851 14.4879 20.208 14.4879H14.6364Z" fill="#FFF200"/>
</svg>
