<svg width="14" height="13" viewBox="0 0 14 13" fill="none" xmlns="http://www.w3.org/2000/svg">
<path d="M3.41391 1.57697C3.41373 1.95005 3.2654 2.30777 3.00156 2.57144C2.73772 2.83511 2.37998 2.98313 2.00703 2.98295C1.63409 2.98276 1.2765 2.83438 1.01292 2.57044C0.749347 2.30651 0.601376 1.94864 0.601563 1.57556C0.601749 1.20249 0.750078 0.844768 1.01392 0.581096C1.27776 0.317424 1.6355 0.1694 2.00844 0.169586C2.38138 0.169773 2.73897 0.318155 3.00255 0.582091C3.26613 0.846027 3.4141 1.2039 3.41391 1.57697ZM3.4561 4.0246H0.643748V12.8304H3.4561V4.0246ZM7.89961 4.0246H5.10132V12.8304H7.87149V8.20947C7.87149 5.63524 11.2252 5.39611 11.2252 8.20947V12.8304H14.0024V7.25293C14.0024 2.91332 9.03861 3.07509 7.87149 5.20621L7.89961 4.0246Z" fill="#919499"/>
</svg>
