<svg width="273" height="273" viewBox="0 0 273 273" fill="none" xmlns="http://www.w3.org/2000/svg">
<g opacity="0.5" filter="url(#filter0_iif_610_3464)">
<mask id="mask0_610_3464" style="mask-type:alpha" maskUnits="userSpaceOnUse" x="20" y="20" width="233" height="233">
<path d="M86.2456 64.4777C93.2254 67.2402 102.511 72.7614 112.025 79.8196C113.428 68.0572 115.793 57.5159 118.579 50.5452C128.455 25.8344 156.522 13.7405 181.266 23.5333C206.011 33.3258 218.064 61.2994 208.187 86.0104C205.348 93.1123 199.633 102.61 192.341 112.307C204.398 113.668 215.227 116.038 222.339 118.852C247.084 128.645 259.137 156.618 249.261 181.329C239.384 206.04 211.318 218.134 186.573 208.341C179.593 205.579 170.308 200.058 160.794 192.999C159.39 204.762 157.026 215.303 154.24 222.274C144.364 246.985 116.297 259.078 91.553 249.286C66.8084 239.493 54.7545 211.52 64.6315 186.809C67.4706 179.707 73.1864 170.209 80.4778 160.512C68.4213 159.151 57.5918 156.781 50.4799 153.967C25.7353 144.174 13.6815 116.201 23.5584 91.4897C33.4349 66.7788 61.5014 54.685 86.2456 64.4777Z" fill="white"/>
</mask>
<g mask="url(#mask0_610_3464)">
<rect x="-22.611" y="65.554" width="255" height="255" transform="rotate(-23.3113 -22.611 65.554)" fill="url(#paint0_linear_610_3464)"/>
</g>
</g>
<defs>
<filter id="filter0_iif_610_3464" x="0.108398" y="0.135254" width="272.602" height="272.549" filterUnits="userSpaceOnUse" color-interpolation-filters="sRGB">
<feFlood flood-opacity="0" result="BackgroundImageFix"/>
<feBlend mode="normal" in="SourceGraphic" in2="BackgroundImageFix" result="shape"/>
<feColorMatrix in="SourceAlpha" type="matrix" values="0 0 0 0 0 0 0 0 0 0 0 0 0 0 0 0 0 0 127 0" result="hardAlpha"/>
<feOffset dx="-6" dy="-6"/>
<feGaussianBlur stdDeviation="4"/>
<feComposite in2="hardAlpha" operator="arithmetic" k2="-1" k3="1"/>
<feColorMatrix type="matrix" values="0 0 0 0 0 0 0 0 0 0 0 0 0 0 0 0 0 0 0.2 0"/>
<feBlend mode="normal" in2="shape" result="effect1_innerShadow_610_3464"/>
<feColorMatrix in="SourceAlpha" type="matrix" values="0 0 0 0 0 0 0 0 0 0 0 0 0 0 0 0 0 0 127 0" result="hardAlpha"/>
<feOffset dx="6" dy="6"/>
<feGaussianBlur stdDeviation="2"/>
<feComposite in2="hardAlpha" operator="arithmetic" k2="-1" k3="1"/>
<feColorMatrix type="matrix" values="0 0 0 0 1 0 0 0 0 1 0 0 0 0 1 0 0 0 0.25 0"/>
<feBlend mode="normal" in2="effect1_innerShadow_610_3464" result="effect2_innerShadow_610_3464"/>
<feGaussianBlur stdDeviation="10" result="effect3_foregroundBlur_610_3464"/>
</filter>
<linearGradient id="paint0_linear_610_3464" x1="104.889" y1="65.554" x2="104.889" y2="320.554" gradientUnits="userSpaceOnUse">
<stop stop-color="#F68B61"/>
<stop offset="1" stop-color="white" stop-opacity="0.5"/>
</linearGradient>
</defs>
</svg>
