<svg width="28" height="28" viewBox="0 0 28 28" fill="none" xmlns="http://www.w3.org/2000/svg">
  <circle cx="14" cy="14" r="13" stroke="white" stroke-width="2"/>
  <path d="M14 20C14.5523 20 15 19.5523 15 19C15 18.4477 14.5523 18 14 18C13.4477 18 13 18.4477 13 19C13 19.5523 13.4477 20 14 20Z" fill="white"/>
  <path d="M14 7C11.7909 7 10 8.79086 10 11H12C12 9.89543 12.8954 9 14 9C15.1046 9 16 9.89543 16 11C16 11.8638 15.4882 12.6027 14.7502 12.9047C13.8012 13.2829 13 14.1403 13 15.5V16H15V15.5C15 15.0384 15.2544 14.6428 15.6503 14.4754C16.9708 13.9106 18 12.5774 18 11C18 8.79086 16.2091 7 14 7Z" fill="white"/>
</svg>
