<svg width="34" height="34" viewBox="0 0 34 34" fill="none" xmlns="http://www.w3.org/2000/svg">
<path opacity="0.14" d="M0.334961 17.0344C0.334961 9.31983 0.334961 5.46256 2.73083 3.06505C5.12996 0.669189 8.98561 0.669189 16.7002 0.669189C24.4147 0.669189 28.272 0.669189 30.6679 3.06505C33.0654 5.46419 33.0654 9.31983 33.0654 17.0344C33.0654 24.7489 33.0654 28.6062 30.6679 31.0021C28.2736 33.3996 24.4147 33.3996 16.7002 33.3996C8.98561 33.3996 5.12833 33.3996 2.73083 31.0021C0.334961 28.6079 0.334961 24.7489 0.334961 17.0344Z" fill="#6F4FF2"/>
<path opacity="0.5" d="M12.7869 9.46313C12.6453 10.3096 12.6453 11.4331 12.6453 12.9773V21.0098C12.6453 22.5541 12.6453 23.6776 12.7869 24.5241H12.6453C10.2787 24.5241 9.09495 24.5241 8.35997 23.7891C7.625 23.0531 7.625 21.8703 7.625 19.5037V14.4834C7.625 12.1169 7.625 10.9331 8.35997 10.1981C9.09495 9.46313 10.2787 9.46313 12.6453 9.46313H12.7869Z" fill="#6F4FF2"/>
<path fill-rule="evenodd" clip-rule="evenodd" d="M13.5251 7.83569C12.6426 8.71726 12.6426 10.138 12.6426 12.9775V21.01C12.6426 23.8495 12.6426 25.2702 13.5251 26.1518C14.4067 27.0344 15.8275 27.0344 18.6669 27.0344H19.671C22.5105 27.0344 23.9312 27.0344 24.8128 26.1518C25.6954 25.2702 25.6954 23.8495 25.6954 21.01V12.9775C25.6954 10.138 25.6954 8.71726 24.8128 7.83569C23.9312 6.95312 22.5105 6.95312 19.671 6.95312H18.6669C15.8275 6.95312 14.4067 6.95312 13.5251 7.83569ZM19.7011 12.4443C19.5599 12.3033 19.3685 12.2241 19.169 12.2241C18.9694 12.2241 18.778 12.3033 18.6368 12.4443L16.1267 14.9545C16.0547 15.0239 15.9973 15.107 15.9578 15.1988C15.9183 15.2907 15.8975 15.3895 15.8966 15.4895C15.8956 15.5895 15.9146 15.6887 15.9525 15.7812C15.9903 15.8738 16.0462 15.9579 16.1168 16.0286C16.1875 16.0994 16.2716 16.1553 16.3641 16.1932C16.4566 16.2311 16.5558 16.2502 16.6558 16.2494C16.7557 16.2486 16.8546 16.2279 16.9465 16.1884C17.0384 16.149 17.1215 16.0917 17.191 16.0198L18.4159 14.7948V21.01C18.4159 21.2097 18.4953 21.4012 18.6365 21.5425C18.7777 21.6837 18.9693 21.763 19.169 21.763C19.3687 21.763 19.5602 21.6837 19.7015 21.5425C19.8427 21.4012 19.922 21.2097 19.922 21.01V14.7948L21.147 16.0198C21.2159 16.0938 21.2991 16.1531 21.3914 16.1943C21.4838 16.2354 21.5835 16.2576 21.6846 16.2594C21.7857 16.2611 21.8862 16.2425 21.9799 16.2047C22.0737 16.1668 22.1589 16.1104 22.2304 16.0389C22.3019 15.9674 22.3583 15.8822 22.3962 15.7885C22.434 15.6947 22.4526 15.5943 22.4508 15.4931C22.4491 15.392 22.4269 15.2923 22.3858 15.1999C22.3446 15.1076 22.2853 15.0244 22.2113 14.9555L19.7011 12.4443Z" fill="#6F4FF2"/>
</svg>
