<svg width="17" height="16" viewBox="0 0 17 16" fill="none" xmlns="http://www.w3.org/2000/svg">
<path d="M10.6023 0.731834C10.83 0.679496 11.0684 0.69936 11.2843 0.78867C11.5002 0.877979 11.6829 1.0323 11.8072 1.23021L12.9254 3.01558C13.0156 3.15938 13.1371 3.28092 13.2809 3.37108L15.0663 4.48933C15.2646 4.61346 15.4193 4.79632 15.5088 5.01248C15.5984 5.22864 15.6183 5.46733 15.5658 5.69533L15.0933 7.74733C15.0552 7.91317 15.0552 8.0855 15.0933 8.25133L15.5658 10.3045C15.6178 10.5321 15.5976 10.7703 15.5081 10.986C15.4186 11.2017 15.2642 11.3842 15.0663 11.5082L13.2809 12.6276C13.1371 12.7177 13.0156 12.8393 12.9254 12.9831L11.8072 14.7685C11.6831 14.9666 11.5004 15.1211 11.2845 15.2106C11.0686 15.3002 10.8301 15.3202 10.6023 15.268L8.54916 14.7955C8.38368 14.7575 8.21176 14.7575 8.04628 14.7955L5.99315 15.268C5.76532 15.3202 5.52687 15.3002 5.31094 15.2106C5.09502 15.1211 4.91233 14.9666 4.78828 14.7685L3.67003 12.9831C3.57954 12.8392 3.45761 12.7176 3.31341 12.6276L1.52916 11.5093C1.33104 11.3853 1.17649 11.2026 1.08697 10.9867C0.997459 10.7707 0.977424 10.5323 1.02966 10.3045L1.50103 8.25133C1.53915 8.0855 1.53915 7.91317 1.50103 7.74733L1.02853 5.69533C0.976154 5.46721 0.996232 5.22844 1.08597 5.01227C1.1757 4.7961 1.33062 4.6133 1.52916 4.48933L3.31341 3.37108C3.45761 3.28105 3.57954 3.15951 3.67003 3.01558L4.78828 1.23021C4.91242 1.03251 5.09499 0.878335 5.31067 0.789037C5.52635 0.69974 5.76448 0.679748 5.99203 0.731834L8.04628 1.20321C8.21176 1.24115 8.38368 1.24115 8.54916 1.20321L10.6023 0.731834Z" stroke="white" stroke-width="1.125"/>
<path d="M5.50195 8.60248L7.79133 10.7951L11.0932 5.20386" stroke="white" stroke-width="1.125" stroke-linecap="round" stroke-linejoin="round"/>
</svg>
